<?xml version="1.0" encoding="UTF-8"?>
<svg id="TÊTES_DE_LIGNE" xmlns="http://www.w3.org/2000/svg" viewBox="0 0 100 100">
  <defs>
    <style>.cls-1{fill:#c59;}.cls-2{fill:#100c08;}</style>
  </defs>
  <path class="cls-1"
    d="m95.84,0H4.16C1.87,0,.02,1.85,0,4.13v91.73c.02,2.29,1.87,4.13,4.16,4.14h91.68c2.29,0,4.16-1.86,4.16-4.15V4.15c0-2.29-1.87-4.15-4.16-4.15Zm-56.3,74.99h-9.6v-39.04l-6.45,6.73-4.66-6.87,12.76-10.82h7.95v49.99Zm22.06.72c-5.09,0-8.53-1.15-11.17-2.22l.43-7.81c2.01,1.08,5.51,2.44,9.24,2.44,5.8,0,9.31-3.94,9.31-9.38,0-6.23-4.3-9.1-10.32-9.1-3.15,0-5.44.72-7.88,1.5v-26.14h25.93v7.23h-17.33v11.1c1.29-.36,3.22-.64,5.16-.64,8.31,0,14.54,5.8,14.54,15.33,0,11.39-7.23,17.69-17.91,17.69Z" />
  <polygon class="cls-2"
    points="18.83 35.82 23.49 42.69 29.94 35.96 29.94 74.99 39.54 74.99 39.54 25 31.59 25 18.83 35.82" />
  <path class="cls-2"
    d="m64.97,42.69c-1.93,0-3.87.29-5.16.64v-11.1h17.33v-7.23h-25.93v26.14c2.44-.79,4.73-1.5,7.88-1.5,6.02,0,10.32,2.86,10.32,9.1,0,5.44-3.51,9.38-9.31,9.38-3.73,0-7.23-1.36-9.24-2.44l-.43,7.81c2.65,1.07,6.09,2.22,11.17,2.22,10.67,0,17.91-6.3,17.91-17.69,0-9.53-6.23-15.33-14.54-15.33Z" />
</svg>