<?xml version="1.0" encoding="UTF-8"?>
<svg id="TÊTES_DE_LIGNE" xmlns="http://www.w3.org/2000/svg" viewBox="0 0 100 100">
  <defs>
    <style>.cls-1{fill:#f26178;}.cls-2{fill:#100c08;}</style>
  </defs>
  <path class="cls-1"
    d="m95.83,0H4.16C1.87,0,.02,1.84,0,4.13v91.74c.02,2.29,1.87,4.13,4.16,4.13h91.68c2.3,0,4.17-1.86,4.17-4.17V4.16c0-2.3-1.87-4.16-4.17-4.16Zm-53.72,74.99h-9.6v-39.04l-6.45,6.73-4.66-6.87,12.75-10.82h7.95v49.99Zm30.3,0h-9.6v-39.04l-6.45,6.73-4.66-6.87,12.75-10.82h7.95v49.99Z" />
  <polygon class="cls-2"
    points="21.41 35.82 26.07 42.69 32.52 35.96 32.52 74.99 42.12 74.99 42.12 25 34.17 25 21.41 35.82" />
  <polygon class="cls-2"
    points="51.71 35.82 56.37 42.69 62.82 35.96 62.82 74.99 72.41 74.99 72.41 25 64.46 25 51.71 35.82" />
</svg>