<?xml version="1.0" encoding="UTF-8"?>
<svg id="TÊTES_DE_LIGNE" xmlns="http://www.w3.org/2000/svg" viewBox="0 0 100 100">
  <defs>
    <style>.cls-1{fill:#100c08;}.cls-2{fill:#57b6b2;}</style>
  </defs>
  <path class="cls-2"
    d="m95.83,0H4.16C1.87,0,.02,1.85,0,4.13v91.73c.02,2.29,1.86,4.13,4.15,4.14h91.7c2.29,0,4.15-1.87,4.15-4.17V4.16c0-2.3-1.87-4.16-4.17-4.16Zm-57.65,75h-9.6v-39.04l-6.45,6.73-4.66-6.87,12.75-10.82h7.95v49.99Zm42.12-10.24h-5.44v10.24h-9.02v-10.24h-18.91v-8.81l17.26-30.95h10.67v32.66h5.44v7.09Z" />
  <polygon class="cls-2" points="53.72 57.66 65.83 57.66 65.83 34.45 65.68 34.45 53.72 57.66" />
  <polygon class="cls-1"
    points="17.48 35.82 22.13 42.69 28.58 35.96 28.58 75 38.18 75 38.18 25 30.23 25 17.48 35.82" />
  <path class="cls-1"
    d="m74.85,25h-10.67l-17.26,30.95v8.81h18.91v10.24h9.02v-10.24h5.44v-7.09h-5.44V25Zm-9.02,32.66h-12.1l11.96-23.21h.14v23.21Z" />
</svg>