<?xml version="1.0" encoding="UTF-8"?>
<svg id="TÊTES_DE_LIGNE" xmlns="http://www.w3.org/2000/svg" viewBox="0 0 100 100">
  <defs>
    <style>.cls-1{fill:#ffdf7e;}.cls-2{fill:#100c08;}</style>
  </defs>
  <path class="cls-1"
    d="m95.83,0H4.16C1.87,0,.02,1.85,0,4.13v91.73c.02,2.29,1.87,4.13,4.16,4.14h91.68c2.3,0,4.17-1.86,4.17-4.17V4.16c0-2.3-1.87-4.16-4.17-4.16Zm-57.26,74.99h-9.6v-39.04l-6.45,6.73-4.66-6.87,12.75-10.82h7.95v49.99Zm39.9,0h-29.01v-7.74c10.82-11.17,18.55-21.42,18.55-27.86,0-4.44-2.44-7.23-7.02-7.23-3.65,0-7.16,1.79-9.81,3.87l-.79-8.74c3.94-1.86,8.45-3.01,13.47-3.01,8.31,0,14.04,5.08,14.04,13.39,0,9.17-9.74,21.63-17.91,29.8h18.48v7.52Z" />
  <polygon class="cls-2"
    points="17.87 35.82 22.53 42.69 28.97 35.96 28.97 74.99 38.57 74.99 38.57 25 30.62 25 17.87 35.82" />
  <path class="cls-2"
    d="m77.9,37.68c0-8.31-5.73-13.39-14.04-13.39-5.01,0-9.53,1.14-13.47,3.01l.79,8.74c2.65-2.08,6.16-3.87,9.81-3.87,4.58,0,7.02,2.79,7.02,7.23,0,6.45-7.73,16.69-18.55,27.86v7.74h29.01v-7.52h-18.48c8.17-8.16,17.91-20.63,17.91-29.8Z" />
</svg>