<?xml version="1.0" encoding="UTF-8"?>
<svg id="TÊTES_DE_LIGNE" xmlns="http://www.w3.org/2000/svg" viewBox="0 0 100 100">
  <defs>
    <style>.cls-1{fill:#100c08;}.cls-2{fill:#9a98c8;}</style>
  </defs>
  <polygon class="cls-2"
    points="38.53 74.92 28.94 74.92 28.94 35.88 22.49 42.61 17.83 35.74 30.58 24.92 38.53 24.92 38.53 74.92" />
  <path class="cls-2"
    d="m60.52,75.63c-5.59,0-9.52-1.15-11.89-2.08l.58-8.17c2.58,1.29,6.01,2.65,10.03,2.65,5.01,0,9.03-3.08,9.03-7.95s-3.22-7.31-8.81-7.31h-4.29v-7.09h2.72c6.16,0,10.25-2.36,10.25-7.09,0-4.44-3.51-6.81-8.24-6.81-3.01,0-6.52,1-9.31,2.51l-.64-7.73c3.79-1.51,7.88-2.37,11.89-2.37,8.67,0,15.9,3.23,15.9,12.68,0,6.88-4.8,10.89-9.67,11.6v.14c4.87.64,10.17,4.23,10.17,11.96,0,9.02-6.6,15.04-17.69,15.04Z" />
  <path class="cls-2"
    d="m95.83,0H4.16C1.87,0,.02,1.85,0,4.13v91.73c.02,2.29,1.86,4.13,4.15,4.14h91.7c2.29,0,4.15-1.87,4.15-4.17V4.16c0-2.3-1.87-4.16-4.17-4.16Z" />
  <polygon class="cls-1"
    points="17.83 35.74 22.49 42.61 28.94 35.88 28.94 74.92 38.53 74.92 38.53 24.92 30.58 24.92 17.83 35.74" />
  <path class="cls-1"
    d="m68.04,48.63v-.14c4.87-.72,9.67-4.73,9.67-11.6,0-9.45-7.23-12.68-15.9-12.68-4.01,0-8.09.86-11.89,2.37l.64,7.73c2.8-1.5,6.3-2.51,9.31-2.51,4.73,0,8.24,2.36,8.24,6.81,0,4.73-4.08,7.09-10.25,7.09h-2.72v7.09h4.29c5.59,0,8.81,2.65,8.81,7.31s-4.01,7.95-9.03,7.95c-4.01,0-7.45-1.36-10.03-2.65l-.58,8.17c2.37.93,6.31,2.08,11.89,2.08,11.1,0,17.69-6.02,17.69-15.04,0-7.73-5.3-11.32-10.17-11.96Z" />
</svg>