<svg height="450" viewBox="0 0 119.06249 119.0625" width="450" xmlns="http://www.w3.org/2000/svg"><circle cx="59.53125" cy="59.53125" fill="#ad8605" fill-rule="evenodd" r="59.53125"/><g fill="#fff" stroke-width=".25146" transform="matrix(1.1089684 0 0 1.1089684 -56.318472 -87.798709)"><path d="m99.21312 120.14765v-12.03854h2.71198v12.03854zm-3.230122-11.13455q-.507118 3.86953-3.307291 6.98941-2.78915 3.10885-6.416146 4.66328l-1.896181-2.08359q2.833247-.904 5.115278-2.93247 2.282031-2.03949 3.09783-4.3105h-6.790972v-2.32613zm-7.783159 19.9099v-7.88238h13.725261v7.88238zm11.03533-5.5783h-8.323351v3.27422h8.323351z"/><path d="m108.58378 112.24322v-2.28203h15.80885v2.28203zm-1.96233 14.2434v-2.30408h8.46667v-3.74826h-6.65868v-2.28203h3.02066l-.24254-4.96094h2.75608l.17639 4.96094h4.67431l.19843-4.96094h2.75608l-.30868 4.96094h3.0868v2.28203h-6.68072v3.74826h8.48871v2.30408z"/><path d="m78.222842 136.69513v1.5434q0 2.66789-.275608 5.11528l-2.645833-.13229q.176389-1.67569.187413-4.24436h-11.046354v-2.28203zm-16.756944 10.04314v-2.30408h7.408333v-3.63802h2.756076v3.63802h9.569098v2.30408zm2.910416 10.49514v-5.68854h11.156598v-1.25677h-11.156598v-2.30408h13.912674v5.68854h-11.156597v1.2678h11.696788v2.29305z"/><path d="m87.185603 147.93992v-9.73446h13.449657v2.30408h-10.671532v5.1263h10.991232v2.30408zm-3.141928 6.52639v-2.30408h19.733505v2.30408z"/><path d="m123.75322 146.82647v10.77074h-2.74505v-21.26588h2.74505v8.16901h3.32934v2.32613zm-3.81441 5.37986q-3.175.54019-12.25902.54019v-8.91866h7.25399v-3.59393h-7.25399v-2.32613h10.03211v8.20209h-7.25399v4.3105q6.46024 0 9.10608-.51814z"/><path d="m144.34663 151.47873v-15.1474h2.71198v15.1474zm-8.73125-3.04271q-2.46944 0-4.09002-1.57648-1.62057-1.5875-1.62057-4.04592 0-2.48047 1.62057-4.05694 1.62058-1.5875 4.09002-1.5875 2.46945 0 4.09002 1.57647 1.62057 1.57648 1.62057 4.06797 0 2.46945-1.62057 4.04592-1.62057 1.57648-4.09002 1.57648zm0-8.94072q-1.32292 0-2.17179.91502-.83784.91502-.83784 2.4033 0 1.47726.83784 2.39228.84887.90399 2.17179.90399 1.34497 0 2.17179-.90399.82682-.91502.82682-2.39228 0-1.45521-.83785-2.38125-.83784-.93707-2.16076-.93707zm-2.28203 17.36329v-7.02249h2.77812v4.69636h11.35504v2.32613z"/></g></svg>