<svg width="71" height="71" viewBox="0 0 71 71" fill="none" xmlns="http://www.w3.org/2000/svg">
  <path
    d="M70.909 61.7291C70.909 66.8421 66.763 70.9891 61.648 70.9891H10.096C4.98196 70.9891 0.834961 66.8431 0.834961 61.7291V10.1761C0.834961 5.06209 4.98096 0.915039 10.096 0.915039H61.648C66.763 0.915039 70.909 5.06109 70.909 10.1761V61.7291Z"
    fill="#F57832" />
  <path fill-rule="evenodd" clip-rule="evenodd"
    d="M16.8131 47.3125L16.9531 47.7215L17.1861 48.0705L17.4781 48.4095L17.8151 48.7005L18.1771 48.9925L18.5851 49.2245L19.0401 49.4585L19.9611 49.7615L20.8711 49.9715L21.7681 50.0305L21.9661 49.9955L22.1411 49.9725L22.4791 49.9145V43.3135H24.2971H26.7701H35.8891H36.1581H45.3361H47.9601H49.3581V49.9715L49.6961 50.0535L50.0711 50.0875H50.1751H50.4911L50.9571 50.0295L51.8661 49.8545L52.7871 49.5035L53.2541 49.3055L53.6501 49.0365L54.0221 48.7575L54.3611 48.4655L54.6531 48.1265L54.8851 47.7775L55.0261 47.3695L55.1071 46.9735L57.1141 28.2575L55.3421 11.7675L55.1911 11.0105L54.9921 10.3225L54.7351 9.68048L54.3961 9.08447L53.9651 8.52551L53.4171 8.03448L52.7871 7.60248L52.0421 7.23047L51.0721 6.79749L50.1751 6.48346L50.0711 6.44849L49.0671 6.14551L48.0641 5.85352L47.9601 5.83051L46.0231 5.44647L45.3351 5.35248L43.9941 5.15448L41.9651 4.95648L39.9241 4.84052L36.1571 4.69946L35.8881 4.68848L31.8201 4.83948L29.7781 4.95551L27.7721 5.1535L26.7691 5.30548L25.7441 5.4455L24.7401 5.62048L24.2971 5.7135L23.7381 5.85352L22.7701 6.14551L21.9651 6.3905L21.7671 6.44849L20.7631 6.79846L19.7841 7.23151L19.0391 7.60352L18.4091 8.03546L17.8721 8.52649L17.4401 9.08551L17.0911 9.68152L16.8111 10.3235L16.6341 11.0115L16.4951 11.7685L14.7241 28.2225L16.7171 46.9155L16.8131 47.3125ZM47.3411 36.5495L47.2141 36.9225L47.0271 37.2485L46.7821 37.5395L46.4901 37.7845L46.1401 37.9715L45.7671 38.0885L45.3351 38.1345L44.9381 38.0885L44.5531 37.9715L44.2161 37.7845L43.8881 37.5395L43.6441 37.2485L43.4581 36.9225L43.3641 36.5495L43.3061 36.1415L43.3641 35.7335L43.4581 35.3715L43.6441 35.0105L43.8881 34.7185L44.2161 34.4735L44.5531 34.2885L44.9381 34.1835L45.3351 34.1245L45.7671 34.1835L46.1401 34.2885L46.4901 34.4735L46.7821 34.7185L47.0271 35.0105L47.2141 35.3715L47.3411 35.7335L47.3761 36.1415L47.3411 36.5495ZM52.1461 36.5495L52.0301 36.9225L51.8441 37.2485L51.5991 37.5395L51.2841 37.7845L50.9701 37.9715L50.5621 38.0885L50.1761 38.1345H50.1541L49.7571 38.0885L49.3851 37.9715L49.0341 37.7845L48.7431 37.5395L48.4741 37.2485L48.2771 36.9225L48.1831 36.5495L48.1471 36.1415L48.1831 35.7335L48.2771 35.3715L48.4741 35.0105L48.7431 34.7185L49.0341 34.4735L49.3851 34.2885L49.7571 34.1835L50.1541 34.1245H50.1761L50.5621 34.1835L50.9701 34.2885L51.2841 34.4735L51.5991 34.7185L51.8441 35.0105L52.0301 35.3715L52.1461 35.7335L52.1931 36.1415L52.1461 36.5495ZM42.0701 12.3635L42.1051 12.1185L42.1991 11.8505L42.3381 11.6045L42.5361 11.3595L42.7121 11.1725L42.9341 11.0105L43.1671 10.9045L43.3771 10.8705H45.3361H47.9601H50.1751H50.7121L51.0961 10.9285L51.3291 11.0115L51.5741 11.1395L51.8441 11.3605L52.0531 11.6395L52.2161 11.9785L52.2981 12.4115L53.8021 27.5705L53.8491 28.0835L53.7681 28.4685L53.6041 28.7375L53.3951 28.9245L53.1501 29.0295L52.8921 29.0875L52.4621 29.1105H50.1751H47.9601H45.3361H43.4591L43.1441 29.0055L42.8521 28.8195L42.6301 28.6325L42.4551 28.4215L42.1991 27.9555L42.0701 27.5705V12.3635ZM31.8551 9.4375H36.1581H40.4731V38.7885H36.1581H31.8551V9.4375ZM23.9261 36.5255L23.8321 36.8985L23.6351 37.2485L23.4021 37.5395L23.0981 37.7845L22.7481 37.9715L22.3871 38.0885L21.9791 38.1345H21.9671L21.5591 38.0885L21.1731 37.9715L20.8241 37.7845L20.5321 37.5395L20.3001 37.2485L20.1121 36.8985L19.9961 36.5255L19.9491 36.1175L19.9961 35.7215L20.1121 35.3355L20.3001 34.9865L20.5321 34.6935L20.8241 34.4375L21.1731 34.2625L21.5591 34.1225L21.9671 34.0995H21.9791L22.3871 34.1225L22.7481 34.2625L23.0981 34.4375L23.4021 34.6935L23.6351 34.9865L23.8321 35.3355L23.9261 35.7215L23.9841 36.1175L23.9261 36.5255ZM28.6951 36.5255L28.5901 36.8985L28.3921 37.2485L28.1601 37.5395L27.8681 37.7845L27.5421 37.9715L27.1681 38.0885L26.7721 38.1345L26.3651 38.0885L25.9911 37.9715L25.6411 37.7845L25.3501 37.5395L25.1051 37.2485L24.9311 36.8985L24.8141 36.5255L24.7911 36.1175L24.8141 35.7215L24.9311 35.3355L25.1051 34.9865L25.3501 34.6935L25.6411 34.4375L25.9911 34.2625L26.3651 34.1225L26.7721 34.0995L27.1681 34.1225L27.5421 34.2625L27.8681 34.4375L28.1601 34.6935L28.3921 34.9865L28.5901 35.3355L28.6951 35.7215L28.7411 36.1175L28.6951 36.5255ZM18.4681 27.1735L20.1131 12.4685L20.2181 11.9325L20.3931 11.5235L20.6151 11.2215L20.8591 11.0455L21.0701 10.9045L21.2211 10.8465L21.3601 10.8235H21.9671H24.2981H26.7711H28.6731L28.9041 10.8465L29.1501 10.9275L29.3951 11.0575L29.6391 11.2205L29.8371 11.4175L30.0011 11.6515L30.1161 11.8955L30.1631 12.1985V27.7665L30.0591 28.0575L29.9541 28.3025L29.7911 28.4895L29.6401 28.6765L29.4181 28.8175L29.1741 28.9215L28.6131 29.1085H26.7701H24.2971H21.9661H20.3001L19.9491 29.0855L19.5991 29.0035L19.2491 28.8535L18.9451 28.6555L18.7121 28.3865L18.5481 28.0365L18.4441 27.6275L18.4681 27.1735Z"
    fill="white" />
  <path d="M44.4621 48.2686H27.7271V50.7175H44.4621V48.2686Z" fill="white" />
  <path fill-rule="evenodd" clip-rule="evenodd"
    d="M54.3271 62.623L51.9591 59.9291H56.9971L54.4321 57.1421H49.511L48.1461 55.5101H45.5701L46.5491 57.1421H36.0421H25.5701L26.5611 55.498L24.0531 55.5101L22.6431 57.1421H17.2321L14.5961 59.9761H20.1821L17.8721 62.623H12.4141L8.78906 66.6221L14.4091 66.6121L12.9391 68.3021H18.7931L19.8201 66.6121L36.041 66.5881L52.2391 66.5651L53.3571 68.4311H59.4211L57.7761 66.553H62.9531L59.2231 62.623H54.3271ZM36.0421 62.623H22.2341L23.8441 59.9651L36.041 59.9521L48.2381 59.941L49.8591 62.623H36.0421Z"
    fill="white" />
  <path d="M26.4801 44.1045H24.1821V54.8685H26.4801V44.1045Z" fill="white" />
  <path d="M47.819 44.1045H45.522V54.8685H47.819V44.1045Z" fill="white" />
</svg>