<svg width="600" height="600" xmlns="http://www.w3.org/2000/svg" xmlns:xlink="http://www.w3.org/1999/xlink" xml:space="preserve" overflow="hidden"><defs><clipPath id="clip0"><rect x="1229" y="0" width="600" height="600"/></clipPath><clipPath id="clip1"><rect x="1351" y="101" width="339" height="399"/></clipPath><clipPath id="clip2"><rect x="1351" y="101" width="339" height="399"/></clipPath><clipPath id="clip3"><rect x="1351" y="101" width="339" height="399"/></clipPath><clipPath id="clip4"><rect x="1351" y="101" width="339" height="399"/></clipPath></defs><g clip-path="url(#clip0)" transform="translate(-1229 0)"><path d="M382.802 600 0 600 0 0.000361392 600.001 0.000361392 600.001 383.824C600.001 503.734 502.406 600 382.802 600" fill="#AF9800" fill-rule="evenodd" transform="matrix(1 0 0 -1 1229 600)"/><g clip-path="url(#clip1)"><g clip-path="url(#clip2)"><g clip-path="url(#clip3)"><g clip-path="url(#clip4)"><path d="M0.0167051 283.04C0.0167051 346.41 51.4215 397.771 114.817 397.771L221.965 397.771C285.379 397.771 336.765 346.393 336.765 283.04 336.765 249.801 322.633 219.857 300.03 198.905 322.633 177.933 336.765 148.021 336.765 114.77 336.765 51.4182 285.379 0.0424243 221.965 0.0424243L114.817 0.0424243C51.4215 0.0424243 0.0167051 51.4182 0.0167051 114.77L61.2438 114.77C61.2438 85.2156 85.2365 61.2302 114.817 61.2302L221.965 61.2302C251.555 61.2302 275.537 85.2156 275.537 114.77 275.537 143.927 252.491 167.625 223.495 168.312L137.777 168.312 137.777 229.499 223.495 229.501C252.491 230.186 275.537 253.9 275.537 283.04 275.537 312.602 251.555 336.582 221.965 336.582L114.817 336.582C85.2365 336.582 61.2438 312.618 61.2438 283.04Z" fill="#FFFFFF" fill-rule="evenodd" transform="matrix(1.00291 0 0 -1 1352 499)"/></g></g></g></g></g></svg>