<svg width="600" height="600" xmlns="http://www.w3.org/2000/svg" xmlns:xlink="http://www.w3.org/1999/xlink" xml:space="preserve" overflow="hidden"><defs><clipPath id="clip0"><rect x="3071" y="0" width="600" height="600"/></clipPath><clipPath id="clip1"><rect x="3194" y="101" width="337" height="399"/></clipPath><clipPath id="clip2"><rect x="3194" y="101" width="337" height="399"/></clipPath><clipPath id="clip3"><rect x="3194" y="101" width="337" height="399"/></clipPath><clipPath id="clip4"><rect x="3194" y="101" width="337" height="399"/></clipPath></defs><g clip-path="url(#clip0)" transform="translate(-3071 0)"><path d="M382.802 600 0 600 0 0.000361392 600 0.000361392 600 383.824C600 503.734 502.406 600 382.802 600" fill="#DA291C" fill-rule="evenodd" transform="matrix(1 0 0 -1 3071 600)"/><g clip-path="url(#clip1)"><g clip-path="url(#clip2)"><g clip-path="url(#clip3)"><g clip-path="url(#clip4)"><path d="M221.971 397.755C285.372 397.755 336.766 346.397 336.766 283.034L275.542 283.034C275.542 312.61 251.554 336.573 221.971 336.573L114.83 336.573C85.2482 336.573 61.2602 312.61 61.2602 283.034L61.2602 229.498 221.971 229.498C285.377 229.498 336.766 178.142 336.766 114.776 336.766 51.4096 285.508 0.0529288 222.113 0.0529288L114.665 0.0529288C51.27 0.0529288 0.0369456 51.4096 0.0369456 114.776L0.0369456 283.034C0.0369456 345.561 49.8575 396.416 112.075 397.755M61.2602 168.312 61.2602 114.785C61.2602 85.2144 85.2452 61.2392 114.83 61.2392L221.971 61.2392C251.571 61.2392 275.542 85.2057 275.542 114.776 275.542 144.347 251.571 168.312 221.971 168.312Z" fill="#FFFFFF" fill-rule="evenodd" transform="matrix(1 0 0 -1.00006 3194 499)"/></g></g></g></g></g></svg>