<svg width="600" height="600" xmlns="http://www.w3.org/2000/svg" xmlns:xlink="http://www.w3.org/1999/xlink" xml:space="preserve" overflow="hidden"><defs><clipPath id="clip0"><rect x="0" y="609" width="600" height="600"/></clipPath><clipPath id="clip1"><rect x="123" y="709" width="337" height="399"/></clipPath><clipPath id="clip2"><rect x="123" y="709" width="337" height="399"/></clipPath><clipPath id="clip3"><rect x="123" y="709" width="337" height="399"/></clipPath><clipPath id="clip4"><rect x="123" y="709" width="337" height="399"/></clipPath></defs><g clip-path="url(#clip0)" transform="matrix(1 0 0 1 0 -609)"><path d="M382.802 600 0 600 0 0.000361392 600 0.000361392 600 383.824C600 503.734 502.406 600 382.802 600" fill="#009A44" fill-rule="evenodd" transform="matrix(1 0 0 -1 0 1209)"/><g clip-path="url(#clip1)"><g clip-path="url(#clip2)"><g clip-path="url(#clip3)"><g clip-path="url(#clip4)"><path d="M114.738 0.0166947C51.3877 0.0166947 0.0299466 51.3872 0.0299466 114.747 0.0299466 147.988 14.1543 177.918 36.7366 198.881 14.1543 219.831 0.0299466 249.773 0.0299466 283.016 0.0299466 346.372 51.3877 397.744 114.738 397.744L221.798 397.744C285.147 397.744 336.506 346.372 336.506 283.016 336.506 249.777 322.383 219.835 299.801 198.881 322.383 177.918 336.506 147.988 336.506 114.747 336.506 51.3872 285.158 0.0166947 221.8 0.0166947ZM221.798 229.477C250.76 230.164 275.328 253.876 275.328 283.016 275.328 312.577 251.356 336.555 221.8 336.555L114.739 336.555C85.1658 336.555 61.2087 312.577 61.2087 283.016 61.2087 253.876 84.4849 230.168 113.455 229.479L114.738 229.476ZM114.739 168.287C85.769 167.598 61.2087 143.898 61.2087 114.747 61.2087 85.1824 85.1658 61.2079 114.739 61.2079L221.798 61.2079C251.355 61.2079 275.328 85.1824 275.328 114.747 275.328 143.898 250.777 167.598 221.798 168.287Z" fill="#FFFFFF" fill-rule="evenodd" transform="matrix(1.00075 0 0 -1 123 1108)"/></g></g></g></g></g></svg>