<svg width="600" height="600" xmlns="http://www.w3.org/2000/svg" xmlns:xlink="http://www.w3.org/1999/xlink" xml:space="preserve" overflow="hidden"><defs><clipPath id="clip0"><rect x="2458" y="609" width="600" height="600"/></clipPath><clipPath id="clip1"><rect x="2506" y="709" width="117" height="400"/></clipPath><clipPath id="clip2"><rect x="2506" y="709" width="117" height="400"/></clipPath><clipPath id="clip3"><rect x="2506" y="709" width="117" height="400"/></clipPath><clipPath id="clip4"><rect x="2506" y="709" width="117" height="400"/></clipPath><clipPath id="clip5"><rect x="2666" y="709" width="339" height="400"/></clipPath><clipPath id="clip6"><rect x="2666" y="709" width="339" height="400"/></clipPath><clipPath id="clip7"><rect x="2666" y="709" width="339" height="400"/></clipPath><clipPath id="clip8"><rect x="2666" y="709" width="339" height="400"/></clipPath></defs><g clip-path="url(#clip0)" transform="translate(-2458 -609)"><path d="M382.802 600 0 600 0 0.000361392 600 0.000361392 600 383.824C600 503.734 502.406 600 382.802 600" fill="#B0A32A" fill-rule="evenodd" transform="matrix(1 0 0 -1 2458 1209)"/><g clip-path="url(#clip1)"><g clip-path="url(#clip2)"><g clip-path="url(#clip3)"><g clip-path="url(#clip4)"><path d="M53.5702 0.0166725 53.5702 295.847C37.5901 287.416 19.3706 282.639 0.0306395 282.639L0.0306395 343.747C29.5969 343.747 53.5702 367.68 53.5702 397.215L114.759 397.215 114.759 0.0166725Z" fill="#FFFFFF" fill-rule="evenodd" transform="matrix(1 0 0 -1.00385 2507 1109)"/></g></g></g></g><g clip-path="url(#clip5)"><g clip-path="url(#clip6)"><g clip-path="url(#clip7)"><g clip-path="url(#clip8)"><path d="M61.4034 111.058 61.4034 61.3685 337.616 61.3685 337.616 0.0268772 0.0223623 0.0268772 0.0223623 111.058C0.0223623 174.591 51.5529 226.074 115.111 226.074L222.528 230.06C252.187 230.06 276.235 254.104 276.235 283.738 276.235 313.387 252.187 337.412 222.528 337.412L115.111 337.412C85.4532 337.412 61.4034 313.387 61.4034 283.738L0.0223623 283.738C0.0223623 347.264 51.5529 398.754 115.111 398.754L222.528 398.754C286.087 398.754 337.616 347.264 337.616 283.738 337.616 220.225 286.087 168.72 222.528 168.72L114.96 164.734C85.3003 164.734 61.4034 140.712 61.4034 111.058" fill="#FFFFFF" fill-rule="evenodd" transform="matrix(1.00039 0 0 -1 2666 1109)"/></g></g></g></g></g></svg>