<svg width="600" height="600" xmlns="http://www.w3.org/2000/svg" xmlns:xlink="http://www.w3.org/1999/xlink" xml:space="preserve" overflow="hidden"><defs><clipPath id="clip0"><rect x="1842" y="0" width="600" height="600"/></clipPath><clipPath id="clip1"><rect x="1964" y="101" width="340" height="399"/></clipPath><clipPath id="clip2"><rect x="1964" y="101" width="340" height="399"/></clipPath><clipPath id="clip3"><rect x="1964" y="101" width="340" height="399"/></clipPath><clipPath id="clip4"><rect x="1964" y="101" width="340" height="399"/></clipPath></defs><g clip-path="url(#clip0)" transform="translate(-1842 0)"><path d="M382.802 600 0 600 0 0.000361392 600 0.000361392 600 383.824C600 503.734 502.406 600 382.802 600" fill="#6BBBAE" fill-rule="evenodd" transform="matrix(1 0 0 -1 1842 600)"/><g clip-path="url(#clip1)"><g clip-path="url(#clip2)"><g clip-path="url(#clip3)"><g clip-path="url(#clip4)"><path d="M77.5923 122.407 214.318 298.086 214.318 122.407ZM275.546 122.407 275.546 397.755 214.319 397.755 0.0237803 122.405 0.0237803 61.218 214.318 61.2158 214.318 0.0277919 275.546 0.0277919 275.546 61.2158 336.773 61.2158 336.773 122.407Z" fill="#FFFFFF" fill-rule="evenodd" transform="matrix(1.00291 0 0 -1 1965 499)"/></g></g></g></g></g></svg>