<svg width="600" height="600" xmlns="http://www.w3.org/2000/svg" xmlns:xlink="http://www.w3.org/1999/xlink" xml:space="preserve" overflow="hidden"><defs><clipPath id="clip0"><rect x="3687" y="0" width="600" height="600"/></clipPath><clipPath id="clip1"><rect x="3810" y="101" width="339" height="399"/></clipPath><clipPath id="clip2"><rect x="3810" y="101" width="339" height="399"/></clipPath><clipPath id="clip3"><rect x="3810" y="101" width="339" height="399"/></clipPath><clipPath id="clip4"><rect x="3810" y="101" width="339" height="399"/></clipPath></defs><g clip-path="url(#clip0)" transform="translate(-3687 0)"><path d="M382.802 600 0 600 0 0.000361392 600 0.000361392 600 383.824C600 503.734 502.406 600 382.802 600" fill="#E87722" fill-rule="evenodd" transform="matrix(1 0 0 -1 3687 600)"/><g clip-path="url(#clip1)"><g clip-path="url(#clip2)"><g clip-path="url(#clip3)"><g clip-path="url(#clip4)"><path d="M249.459 195.821 161.426 163.092C137.628 152.982 122.494 133.29 122.494 108.725L122.495 0.0344697 61.2675 0.0344697 61.2675 108.725C61.2675 162.444 98.7481 207.302 147.953 222.616L237.766 256.021C258.515 263.772 275.562 285.368 275.562 309.482L275.562 336.574 0.0394045 336.574 0.0394045 397.763 336.789 397.763 336.789 336.574 336.789 309.482C336.789 255.541 298.459 213.17 249.459 195.821" fill="#FFFFFF" fill-rule="evenodd" transform="matrix(1.00291 0 0 -1 3810 499)"/></g></g></g></g></g></svg>