<svg width="600" height="600" xmlns="http://www.w3.org/2000/svg" xmlns:xlink="http://www.w3.org/1999/xlink" xml:space="preserve" overflow="hidden"><defs><clipPath id="clip0"><rect x="1842" y="609" width="600" height="600"/></clipPath><linearGradient x1="300" y1="0.000361392" x2="300" y2="600" gradientUnits="userSpaceOnUse" spreadMethod="reflect" id="fill1"><stop offset="0" stop-color="#B1B3B3"/><stop offset="0.5" stop-color="#B1B3B3"/><stop offset="0.5" stop-color="#00843D"/><stop offset="1" stop-color="#00843D"/></linearGradient><clipPath id="clip2"><rect x="1964" y="709" width="339" height="399"/></clipPath><clipPath id="clip3"><rect x="1964" y="709" width="339" height="399"/></clipPath><clipPath id="clip4"><rect x="1964" y="709" width="339" height="399"/></clipPath><clipPath id="clip5"><rect x="1964" y="709" width="339" height="399"/></clipPath></defs><g clip-path="url(#clip0)" transform="translate(-1842 -609)"><path d="M382.802 600 0 600 0 0.000361392 600 0.000361392 600 383.824C600 503.734 502.406 600 382.802 600" fill="url(#fill1)" fill-rule="evenodd" transform="matrix(1 0 0 -1 1842 1209)"/><g clip-path="url(#clip2)"><g clip-path="url(#clip3)"><g clip-path="url(#clip4)"><g clip-path="url(#clip5)"><path d="M221.803 397.78C285.155 397.78 336.512 346.407 336.512 283.051 336.512 249.803 322.385 219.855 299.804 198.916 322.385 177.947 336.512 148.018 336.512 114.783 336.512 51.4147 285.155 0.0529321 221.803 0.0529321L0.0340707 0.0529321 0.0340707 397.78ZM61.2106 61.2408 221.803 61.2408C251.369 61.2408 275.331 85.2109 275.331 114.783 275.331 143.921 250.769 167.646 221.803 168.323L61.2106 168.323ZM61.2117 229.511 221.803 229.512C250.769 230.204 275.331 253.905 275.331 283.051 275.331 312.615 251.369 336.59 221.803 336.59L61.2128 336.593Z" fill="#FFFFFF" fill-rule="evenodd" transform="matrix(1.00075 0 0 -1 1965 1108)"/></g></g></g></g></g></svg>