<svg width="600" height="600" xmlns="http://www.w3.org/2000/svg" xmlns:xlink="http://www.w3.org/1999/xlink" xml:space="preserve" overflow="hidden"><defs><clipPath id="clip0"><rect x="1229" y="609" width="600" height="600"/></clipPath><clipPath id="clip1"><rect x="1351" y="709" width="339" height="399"/></clipPath><clipPath id="clip2"><rect x="1351" y="709" width="339" height="399"/></clipPath><clipPath id="clip3"><rect x="1351" y="709" width="339" height="399"/></clipPath><clipPath id="clip4"><rect x="1351" y="709" width="339" height="399"/></clipPath></defs><g clip-path="url(#clip0)" transform="translate(-1229 -609)"><path d="M382.802 600 0 600 0 0.000361392 600.001 0.000361392 600.001 383.824C600.001 503.734 502.406 600 382.802 600" fill="#981D97" fill-rule="evenodd" transform="matrix(1 0 0 -1 1229 1209)"/><g clip-path="url(#clip1)"><g clip-path="url(#clip2)"><g clip-path="url(#clip3)"><g clip-path="url(#clip4)"><path d="M0.0167051 0.0166947 0.0167051 283.016C0.0167051 346.312 51.4841 397.744 114.817 397.744L221.965 397.744C285.305 397.744 336.765 346.315 336.765 283.016L336.765 0.0166947 275.537 0.0166947 275.54 168.287 61.2427 168.287 61.2438 0.0166947ZM275.537 229.475 275.537 283.016C275.537 312.547 251.518 336.555 221.965 336.555L114.817 336.555C85.2646 336.555 61.2438 312.544 61.2438 283.016L61.2438 229.475Z" fill="#FFFFFF" fill-rule="evenodd" transform="matrix(1.00291 0 0 -1 1352 1108)"/></g></g></g></g></g></svg>