<svg width="600" height="600" xmlns="http://www.w3.org/2000/svg" xmlns:xlink="http://www.w3.org/1999/xlink" xml:space="preserve" overflow="hidden"><defs><clipPath id="clip0"><rect x="613" y="609" width="600" height="600"/></clipPath><clipPath id="clip1"><rect x="735" y="709" width="339" height="399"/></clipPath><clipPath id="clip2"><rect x="735" y="709" width="339" height="399"/></clipPath><clipPath id="clip3"><rect x="735" y="709" width="339" height="399"/></clipPath><clipPath id="clip4"><rect x="735" y="709" width="339" height="399"/></clipPath></defs><g clip-path="url(#clip0)" transform="translate(-613 -609)"><path d="M382.802 600 0 600 0 0.000361392 600.001 0.000361392 600.001 383.824C600.001 503.734 502.406 600 382.802 600" fill="#512F2E" fill-rule="evenodd" transform="matrix(1 0 0 -1 613 1209)"/><g clip-path="url(#clip1)"><g clip-path="url(#clip2)"><g clip-path="url(#clip3)"><g clip-path="url(#clip4)"><path d="M114.828 0.0166947C51.4242 0.0166947 0.0271213 51.3788 0.0271213 114.746L61.2542 114.746C61.2542 85.1696 85.2428 61.2046 114.828 61.2046L221.975 61.2046C251.559 61.2046 275.548 85.1696 275.548 114.746L275.548 168.286 114.828 168.286C51.418 168.286 0.0271213 219.644 0.0271213 283.016 0.0271213 346.385 51.2862 397.744 114.686 397.744L222.14 397.744C285.539 397.744 336.776 346.385 336.776 283.016L336.776 114.746C336.776 52.214 286.952 1.35719 224.73 0.0166947ZM275.548 229.476 275.548 283.005C275.548 312.577 251.562 336.555 221.975 336.555L114.828 336.555C85.2265 336.555 61.2542 312.585 61.2542 283.016 61.2542 253.442 85.2265 229.476 114.828 229.476Z" fill="#FFFFFF" fill-rule="evenodd" transform="matrix(1.00291 0 0 -1 736 1108)"/></g></g></g></g></g></svg>