<svg width="600" height="600" xmlns="http://www.w3.org/2000/svg" xmlns:xlink="http://www.w3.org/1999/xlink" xml:space="preserve" overflow="hidden"><defs><clipPath id="clip0"><rect x="0" y="0" width="600" height="600"/></clipPath><clipPath id="clip1"><rect x="234" y="101" width="116" height="399"/></clipPath><clipPath id="clip2"><rect x="234" y="101" width="116" height="399"/></clipPath><clipPath id="clip3"><rect x="234" y="101" width="116" height="399"/></clipPath><clipPath id="clip4"><rect x="234" y="101" width="116" height="399"/></clipPath></defs><g clip-path="url(#clip0)"><path d="M382.802 600 0 600 0 0.000361392 600 0.000361392 600 383.824C600 503.734 502.406 600 382.802 600" fill="#F04E98" fill-rule="evenodd" transform="matrix(1 0 0 -1 0 600)"/><g clip-path="url(#clip1)"><g clip-path="url(#clip2)"><g clip-path="url(#clip3)"><g clip-path="url(#clip4)"><path d="M53.6415 0.0166947 53.6415 296.241C37.6401 287.799 19.3964 283.016 0.0306803 283.016L0.0306803 344.205C29.6363 344.205 53.6415 368.169 53.6415 397.744L114.912 397.744 114.912 0.0166947Z" fill="#FFFFFF" fill-rule="evenodd" transform="matrix(1.00735 0 0 -1 234 499)"/></g></g></g></g></g></svg>