<svg width="512" height="417" viewBox="0 0 512 417" fill="none" xmlns="http://www.w3.org/2000/svg">
	<g clip-path="url(#clip0_1021_22)">
		<path
			d="M390.262 208.007C390.262 282.128 330.131 342.235 256.01 342.235C181.871 342.235 121.794 282.128 121.794 208.007C121.794 133.898 181.87 73.81 256.01 73.81C330.131 73.81 390.262 133.899 390.262 208.007ZM256.01 0C141.108 0 47.972 93.135 47.972 208.007C47.972 322.903 141.107 416.045 256.01 416.045C370.894 416.045 464.023 322.904 464.023 208.007C464.024 93.135 370.894 0 256.01 0Z"
			fill="#773DBD" />
		<!-- <path d="M512 165.944H0V250.096H512V165.944Z" fill="#000F9F" /> -->
	</g>
	<defs>
		<clipPath id="clip0_1021_22">
			<rect width="512" height="416.045" fill="white" />
		</clipPath>
	</defs>
</svg>