<?xml version="1.0" encoding="utf-8"?>
<!-- Generator: Adobe Illustrator 23.0.1, SVG Export Plug-In . SVG Version: 6.00 Build 0)  -->
<svg version="1.1"
	id="svg34504" inkscape:version="0.92.0 r15299" sodipodi:docname="l12.svg"
	xmlns:cc="http://creativecommons.org/ns#" xmlns:dc="http://purl.org/dc/elements/1.1/"
	xmlns:inkscape="http://www.inkscape.org/namespaces/inkscape"
	xmlns:rdf="http://www.w3.org/1999/02/22-rdf-syntax-ns#"
	xmlns:sodipodi="http://sodipodi.sourceforge.net/DTD/sodipodi-0.dtd"
	xmlns:svg="http://www.w3.org/2000/svg"
	xmlns="http://www.w3.org/2000/svg" xmlns:xlink="http://www.w3.org/1999/xlink" x="0px" y="0px"
	width="63.983px" height="64px"
	viewBox="0 0 63.983 64" enable-background="new 0 0 63.983 64" xml:space="preserve">
<g>
	<rect fill="#BBB3D7" width="63.983" height="64"/>
	<polygon fill="#1D1D1B" points="5.997,19.061 12.416,19.061 12.416,42.874 26.646,42.874 26.646,48.268 5.997,48.268 	"/>
	<path fill="#1D1D1B" d="M36.081,48.27h-5.8V29.701h-7.208v-4.374c4.044,0.075,7.776-1.304,8.384-5.696h4.624V48.27z"/>
	<path fill="#1D1D1B" d="M39.381,30.637c-0.209-6.547,3.517-11.57,10.4-11.57c5.232,0,9.803,3.349,9.803,8.946
		c0,4.299-2.295,6.669-5.116,8.673c-2.816,2.005-6.165,3.639-8.262,6.588h13.535v5H38.72c0.04-6.634,4.102-9.45,9.044-12.81
		c2.544-1.715,5.968-3.471,6.008-6.999c0-2.688-1.79-4.415-4.281-4.415c-3.442,0-4.548,3.569-4.548,6.587H39.381z"/>
</g>
</svg>