<?xml version="1.0" encoding="utf-8"?>
<!-- Generator: Adobe Illustrator 23.0.1, SVG Export Plug-In . SVG Version: 6.00 Build 0)  -->
<svg version="1.1"
	id="svg21844" inkscape:output_extension="org.inkscape.output.svg.inkscape" inkscape:version="0.46"
	sodipodi:docname="L6.svg" sodipodi:version="0.32" xmlns:cc="http://creativecommons.org/ns#"
	xmlns:dc="http://purl.org/dc/elements/1.1/"
	xmlns:inkscape="http://www.inkscape.org/namespaces/inkscape"
	xmlns:rdf="http://www.w3.org/1999/02/22-rdf-syntax-ns#"
	xmlns:sodipodi="http://sodipodi.sourceforge.net/DTD/sodipodi-0.dtd"
	xmlns:svg="http://www.w3.org/2000/svg"
	xmlns="http://www.w3.org/2000/svg" xmlns:xlink="http://www.w3.org/1999/xlink" x="0px" y="0px"
	width="63.983px" height="64px"
	viewBox="0 0 63.983 64" enable-background="new 0 0 63.983 64" xml:space="preserve">
<g>
	<rect fill-rule="evenodd" clip-rule="evenodd" fill="#7386BC" width="63.983" height="64"/>
	<polygon fill="#FFFFFF" points="15.587,15.263 15.587,42.634 31.954,42.634 31.954,48.845 8.205,48.845 8.205,15.263 	"/>
	<path fill="#FFFFFF" d="M49.592,21.53c-0.777-0.817-1.756-1.24-2.915-1.24c-1.182,0-2.184,0.371-2.978,1.072
		c-0.805,0.696-1.448,1.564-1.912,2.578c-0.475,1.02-0.817,2.109-1.037,3.274c-0.215,1.159-0.342,2.196-0.371,3.106l0.093,0.093
		c0.91-1.315,1.976-2.254,3.204-2.816c1.211-0.568,2.619-0.846,4.229-0.846c1.408,0,2.781,0.301,4.137,0.91
		c1.344,0.608,2.491,1.437,3.442,2.462c0.869,1.014,1.512,2.149,1.924,3.442c0.405,1.281,0.603,2.584,0.603,3.917
		c0,1.668-0.272,3.25-0.829,4.716c-0.539,1.46-1.333,2.729-2.347,3.807c-1.014,1.083-2.225,1.923-3.65,2.532
		c-1.408,0.62-2.978,0.921-4.705,0.921c-2.474,0-4.519-0.487-6.153-1.477c-1.634-0.985-2.938-2.277-3.9-3.888
		c-0.979-1.593-1.651-3.395-2.034-5.429c-0.365-2.016-0.55-4.085-0.55-6.182c0-2.039,0.238-4.067,0.695-6.113
		c0.475-2.045,1.228-3.888,2.271-5.522c1.026-1.645,2.358-2.99,3.992-4.021c1.634-1.043,3.621-1.57,5.968-1.57
		c1.413,0,2.729,0.214,3.957,0.62c1.223,0.411,2.306,1.002,3.239,1.767c0.95,0.765,1.715,1.715,2.306,2.833
		c0.597,1.136,0.991,2.439,1.176,3.916H51.11C50.872,23.297,50.38,22.335,49.592,21.53 M43.978,32.271
		c-0.672,0.33-1.24,0.777-1.674,1.345c-0.435,0.556-0.765,1.211-0.991,1.952c-0.209,0.736-0.325,1.5-0.325,2.318
		c0,0.753,0.116,1.5,0.354,2.242c0.238,0.736,0.579,1.397,1.026,1.976c0.463,0.58,1.02,1.043,1.674,1.385
		c0.661,0.342,1.413,0.51,2.254,0.51c0.817,0,1.529-0.168,2.15-0.51c0.608-0.342,1.136-0.794,1.57-1.361
		c0.446-0.562,0.776-1.211,0.985-1.935c0.226-0.724,0.33-1.448,0.33-2.201c0-0.788-0.093-1.553-0.301-2.295
		c-0.197-0.724-0.504-1.396-0.921-1.976c-0.4-0.579-0.927-1.037-1.57-1.408c-0.643-0.359-1.385-0.539-2.242-0.539
		C45.426,31.773,44.649,31.941,43.978,32.271"/>
</g>
</svg>