<svg width="475" height="475" viewBox="0 0 475 475" fill="none" xmlns="http://www.w3.org/2000/svg">
<path fill-rule="evenodd" clip-rule="evenodd" d="M111.399 107H362.599C411.972 107 452 165.435 452 237.5C452 309.588 411.972 368 362.599 368H111.399C62.0269 368 22 309.588 22 237.5C22 165.435 62.027 107 111.399 107Z" fill="#B41439"/>
<path d="M350.671 136H125.328C89.4482 136 62 182.95 62 237.488C62 292.05 89.4482 339 125.328 339H350.671C386.544 339 414 292.05 414 237.488C414 182.95 386.544 136 350.671 136Z" fill="white"/>
<path fill-rule="evenodd" clip-rule="evenodd" d="M105.275 301.636C113.366 305.907 130.001 310.415 147.314 310.415C189.328 310.415 209.783 288.608 209.783 262.078C209.783 242.071 198.322 227.241 172.253 216.919C153.376 209.491 146.176 206.12 146.176 198.267C146.176 191.504 152.925 186.569 165.276 186.569C179.218 186.569 189.777 190.625 195.854 193.546L203.719 161.842C194.725 157.808 182.362 154.438 165.502 154.438C127.975 154.438 106.627 175.106 106.627 201.638C106.627 222.306 121.459 236.687 146.851 246.582C163.26 252.87 169.998 257.142 169.998 264.996C169.998 272.874 163.26 278.048 149.331 278.048C135.388 278.048 121.233 273.54 112.478 269.054L105.275 301.636Z" fill="#B41439"/>
<path fill-rule="evenodd" clip-rule="evenodd" d="M379.134 306.499V273.634H328.48V273.182L341.948 262.004C359.971 247.174 376.631 227.549 376.631 202.917C376.631 175.295 357.918 155.906 323.464 155.906C303.612 155.906 285.826 162.29 275.09 170.052L285.363 198.812C293.123 193.33 303.612 187.635 315.49 187.635C330.082 187.635 337.156 195.371 337.156 206.098C336.93 222.066 321.636 237.588 293.349 263.83L273.725 282.08V306.499L379.134 306.499Z" fill="#B41439"/>
</svg>
