<svg width="475" height="475" viewBox="0 0 475 475" fill="none" xmlns="http://www.w3.org/2000/svg">
<g clip-path="url(#clip0_1438_131)">
<path d="M426 116H50V360H426V116Z" fill="#ED0020"/>
<path fill-rule="evenodd" clip-rule="evenodd" d="M391.673 317.531V282.552H337.735V282.066L352.068 270.168C371.251 254.385 388.987 233.486 388.987 207.258C388.987 177.862 369.063 157.211 332.393 157.211C311.251 157.211 292.294 164.017 280.865 172.274L291.798 202.886C300.07 197.05 311.251 190.979 323.896 190.979C339.425 190.979 346.952 199.236 346.952 210.66C346.729 227.66 330.433 244.178 300.319 272.106L279.399 291.542V317.531L391.673 317.531Z" fill="white"/>
<path fill-rule="evenodd" clip-rule="evenodd" d="M83.8984 158.406V246.364C83.8984 295.279 104.843 319.273 146.953 319.273C189.538 319.273 212.346 294.81 212.346 247.308V158.406H171.401V250.364C171.401 275.301 163.4 286.354 148.12 286.354C132.818 286.354 124.842 274.12 124.842 250.364V158.406H83.8984Z" fill="white"/>
</g>
<defs>
<clipPath id="clip0_1438_131">
<rect width="376" height="244" fill="white" transform="translate(50 116)"/>
</clipPath>
</defs>
</svg>
