<svg width="475" height="475" viewBox="0 0 475 475" fill="none" xmlns="http://www.w3.org/2000/svg">
<g clip-path="url(#clip0_1438_111)">
<path d="M107.144 107H368.856C420.301 107 462 165.423 462 237.502C462 309.565 420.301 368 368.856 368H107.144C55.6985 368 14 309.565 14 237.502C14 165.423 55.6985 107 107.144 107Z" fill="#BD1B8D"/>
<path d="M84.0225 314.76C93.0166 319.508 111.527 324.514 130.773 324.514C177.521 324.514 200.266 300.262 200.266 270.764C200.266 248.518 187.511 232.026 158.514 220.515C137.512 212.271 129.516 208.521 129.516 199.776C129.516 192.276 137.014 186.773 150.765 186.773C166.261 186.773 178.02 191.269 184.77 194.521L193.516 159.28C183.513 154.772 169.76 151.023 151.015 151.023C109.272 151.023 85.5205 174.019 85.5205 203.525C85.5205 226.521 102.022 242.526 130.272 253.524C148.521 260.512 156.02 265.27 156.02 274.016C156.02 282.772 148.521 288.516 133.014 288.516C117.518 288.516 101.773 283.52 92.0205 278.512L84.0225 314.76Z" fill="white"/>
<path fill-rule="evenodd" clip-rule="evenodd" d="M302.353 252.191V251.675L321.639 218.427C327.478 208.27 331.282 198.626 336.362 187.979H337.368C336.605 198.626 336.091 208.784 336.091 218.674V252.191H302.353ZM373.411 320.964V282.392H391.936V252.191H373.411V155.984H325.69L266.066 256.238V282.392H336.091V320.964L373.411 320.964Z" fill="white"/>
</g>
<defs>
<clipPath id="clip0_1438_111">
<rect width="448" height="261" fill="white" transform="translate(14 107)"/>
</clipPath>
</defs>
</svg>
