<svg width="475" height="475" viewBox="0 0 475 475" fill="none" xmlns="http://www.w3.org/2000/svg">
<g clip-path="url(#clip0_1438_92)">
<path fill-rule="evenodd" clip-rule="evenodd" d="M108.893 108H367.107C417.864 108 459 166.209 459 238.006C459 309.803 417.864 368 367.107 368H108.893C58.1359 368 17 309.803 17 238.006C17 166.209 58.1359 108 108.893 108Z" fill="#00962C"/>
<path fill-rule="evenodd" clip-rule="evenodd" d="M103.024 308.03C111.995 312.775 130.481 317.771 149.7 317.771C196.379 317.771 219.089 293.555 219.089 264.094C219.089 241.884 206.371 225.401 177.397 213.93C156.441 205.682 148.444 201.944 148.444 193.199C148.444 185.713 155.943 180.221 169.658 180.221C185.155 180.221 196.876 184.704 203.618 187.967L212.351 152.764C202.359 148.266 188.644 144.529 169.921 144.529C128.228 144.529 104.521 167.488 104.521 196.949C104.521 219.909 120.988 235.892 149.203 246.877C167.429 253.854 174.902 258.602 174.902 267.345C174.902 276.078 167.429 281.821 151.956 281.821C136.46 281.821 120.729 276.826 110.999 271.844L103.024 308.03Z" fill="white"/>
<path fill-rule="evenodd" clip-rule="evenodd" d="M317.877 315.613H361.208V147.984H324.071L277.892 168.879L285.106 202.659L317.356 187.697H317.877V315.613Z" fill="white"/>
</g>
<defs>
<clipPath id="clip0_1438_92">
<rect width="442" height="260" fill="white" transform="translate(17 108)"/>
</clipPath>
</defs>
</svg>
