<svg width="475" height="475" viewBox="0 0 475 475" fill="none" xmlns="http://www.w3.org/2000/svg">
<g clip-path="url(#clip0_1438_118)">
<path d="M111.025 108H363.974C413.697 108 454 166.199 454 238.002C454 309.788 413.696 368 363.974 368H111.025C61.3027 368 21 309.788 21 238.002C21 166.199 61.3027 108 111.025 108Z" fill="#008ABD"/>
<path d="M82.0229 314.759C91.0169 319.507 109.528 324.513 128.774 324.513C175.522 324.513 198.266 300.261 198.266 270.763C198.266 248.517 185.511 232.026 156.514 220.514C135.512 212.27 127.516 208.52 127.516 199.776C127.516 192.276 135.014 186.773 148.765 186.773C164.261 186.773 176.02 191.268 182.77 194.52L191.516 159.28C181.513 154.772 167.76 151.023 149.015 151.023C107.273 151.023 83.521 174.018 83.521 203.525C83.521 226.52 100.023 242.525 128.273 253.523C146.522 260.511 154.021 265.269 154.021 274.015C154.021 282.771 146.522 288.515 131.014 288.515C115.518 288.515 99.774 283.519 90.021 278.511L82.0229 314.759Z" fill="white"/>
<path d="M377.494 154.734H288.676L278.27 241.518C284.604 240.756 290.443 239.997 298.834 239.997C329.281 239.997 343.244 249.395 343.244 266.889C343.244 283.648 327.49 291.008 312.033 291.008C298.072 291.008 284.113 286.96 276.996 283.404L270.15 313.607C279.031 318.171 295.275 322.219 314.046 322.219C358.21 322.219 383.851 295.081 383.851 264.117C383.851 245.324 377.005 232.123 365.327 223.238C353.647 214.629 337.403 211.314 322.929 211.071C319.642 211.071 316.845 211.071 313.554 211.314L316.845 187.711H377.495V154.734H377.494Z" fill="white"/>
</g>
<defs>
<clipPath id="clip0_1438_118">
<rect width="433" height="260" fill="white" transform="translate(21 108)"/>
</clipPath>
</defs>
</svg>
