<svg width="475" height="475" viewBox="0 0 475 475" fill="none" xmlns="http://www.w3.org/2000/svg">
<g clip-path="url(#clip0_1438_137)">
<path d="M437 114H39V361H437V114Z" fill="#FFD600" stroke="black" stroke-width="4.99944" stroke-miterlimit="3.86"/>
<path fill-rule="evenodd" clip-rule="evenodd" d="M285.584 309.478C295.083 315.077 311.881 319.677 331.979 319.677C372.374 319.677 397.571 299.279 397.571 271.382C397.571 251.184 382.973 237.086 364.775 233.187V232.687C383.273 226.187 392.472 213.289 392.472 196.791C392.472 174.433 373.074 156.955 339.078 156.955C318.68 156.955 299.682 162.304 290.183 168.134L297.983 198.49C304.082 195.091 316.98 189.991 329.079 189.991C342.478 189.991 349.977 195.581 349.977 204.08C349.977 215.488 335.878 219.188 324.68 219.188H311.381V249.285H325.679C340.278 249.285 353.876 255.284 353.876 268.882C353.876 280.081 344.177 286.381 328.379 286.381C314.481 286.381 299.882 281.081 293.383 277.482L285.584 309.478Z" fill="white" stroke="black" stroke-width="4.99944" stroke-miterlimit="3.86"/>
<path fill-rule="evenodd" clip-rule="evenodd" d="M91.3057 158.145V246.085C91.3057 294.979 112.203 318.976 154.399 318.976C196.894 318.976 219.791 294.579 219.791 246.985V158.145H178.796V250.084C178.796 274.981 170.797 286.08 155.498 286.08C140.2 286.08 132.201 273.882 132.201 250.084V158.145H91.3057Z" fill="white" stroke="black" stroke-width="4.99944" stroke-miterlimit="3.86"/>
</g>
<defs>
<clipPath id="clip0_1438_137">
<rect width="398" height="247" fill="white" transform="translate(39 114)"/>
</clipPath>
</defs>
</svg>
