<svg width="475" height="475" viewBox="0 0 475 475" fill="none" xmlns="http://www.w3.org/2000/svg">
<g clip-path="url(#clip0_1438_105)">
<path fill-rule="evenodd" clip-rule="evenodd" d="M113.946 108H361.054C409.628 108 449 166.199 449 238.001C449 309.789 409.628 368 361.054 368H113.946C65.3715 368 26 309.789 26 238.001C26 166.199 65.3715 108 113.946 108Z" fill="#54216E"/>
<path fill-rule="evenodd" clip-rule="evenodd" d="M92.0225 314.76C101.017 319.508 119.527 324.514 138.773 324.514C185.521 324.514 208.266 300.263 208.266 270.765C208.266 248.518 195.511 232.026 166.514 220.515C145.512 212.27 137.516 208.52 137.516 199.776C137.516 192.276 145.014 186.773 158.765 186.773C174.261 186.773 186.02 191.268 192.77 194.52L201.516 159.28C191.513 154.772 177.76 151.023 159.015 151.023C117.272 151.023 93.5206 174.019 93.5206 203.525C93.5206 226.521 110.023 242.526 138.273 253.524C156.522 260.513 164.021 265.271 164.021 274.017C164.021 282.772 156.522 288.517 141.014 288.517C125.518 288.517 109.774 283.52 100.021 278.512L92.0225 314.76Z" fill="white"/>
<path fill-rule="evenodd" clip-rule="evenodd" d="M277.642 313.932C287.68 319.852 305.453 324.741 326.822 324.741C369.572 324.741 396.361 303.112 396.361 273.495C396.361 252.126 380.903 237.189 361.588 233.07V232.561C381.166 225.607 390.953 211.964 390.953 194.438C390.953 170.756 370.343 152.211 334.297 152.211C312.667 152.211 292.578 157.882 282.53 164.052L290.776 196.241C297.22 192.647 310.864 187.235 323.738 187.235C337.904 187.235 345.878 193.158 345.878 202.163C345.878 214.275 330.951 218.133 319.1 218.133H304.943V250.06H320.13C335.592 250.06 350.007 256.505 350.007 270.919C350.007 282.772 339.708 289.465 322.966 289.465C308.288 289.465 292.829 283.806 285.877 279.936L277.642 313.932Z" fill="white"/>
</g>
<defs>
<clipPath id="clip0_1438_105">
<rect width="423" height="260" fill="white" transform="translate(26 108)"/>
</clipPath>
</defs>
</svg>
