<svg width="475" height="475" viewBox="0 0 475 475" fill="none" xmlns="http://www.w3.org/2000/svg">
<g clip-path="url(#clip0_1438_143)">
<path d="M431 116H44V360H431V116Z" fill="#008B8F"/>
<path fill-rule="evenodd" clip-rule="evenodd" d="M83.8984 158.404V246.364C83.8984 295.278 104.843 319.273 146.953 319.273C189.538 319.273 212.346 294.808 212.346 247.308V158.404H171.401V250.362C171.401 275.299 163.4 286.352 148.12 286.352C132.818 286.352 124.842 274.119 124.842 250.362V158.404H83.8984Z" fill="white"/>
<path fill-rule="evenodd" clip-rule="evenodd" d="M310.92 251.865L329.821 218.773C335.544 208.817 339.273 199.365 344.253 188.93C344.491 199.365 343.986 209.322 343.986 219.015V251.865H310.92ZM380.565 319.272V281.467H398.722V251.865H380.565V157.572H333.792L275.354 255.832V281.467H343.986V319.272H380.565Z" fill="white"/>
</g>
<defs>
<clipPath id="clip0_1438_143">
<rect width="387" height="244" fill="white" transform="translate(44 116)"/>
</clipPath>
</defs>
</svg>
