<svg xmlns="http://www.w3.org/2000/svg" width="250" height="250" viewBox="0 0 250 250"><defs><style>.cls-1{fill:#b1b1b1;}.cls-2{fill:#fff;}</style></defs><g id="Layer_2" data-name="Layer 2"><g id="Layer_1-2" data-name="Layer 1"><path class="cls-1" d="M0,125C0,56.19,56.17,0,125,0S250,56.17,250,125,193.83,250,125,250,0,193.83,0,125Z"/><path class="cls-2" d="M83.72,168.61V95.15h-25V81.4h67.46V95.15h-25v73.46Z"/><path class="cls-2" d="M184.65,97.14a37.12,37.12,0,0,0-15.24-3.5c-13.86,0-20.12,11.88-20.74,27l.25.25c4.13-6,9.49-8.74,17-8.74,16,0,25.36,10.11,25.36,26.61,0,20-10.24,31.35-29,31.35-19.49,0-29.61-12.86-29.61-40.59,0-26.75,9.49-49.61,35.85-49.61A54.1,54.1,0,0,1,186.9,83Zm-10.86,44.35c0-8-3.13-16.36-12-16.36-7.25,0-11.62,6.12-11.62,16.49,0,8.12,3.37,15.5,12.12,15.5C170.66,157.12,173.79,148.87,173.79,141.49Z"/></g></g></svg>