<svg width="376" height="349" viewBox="0 0 376 349" fill="none" xmlns="http://www.w3.org/2000/svg">
<path fill-rule="evenodd" clip-rule="evenodd" d="M371.719 333.419C371.719 339.793 366.56 344.965 360.184 344.965H15.3839C9.00721 344.965 3.8457 339.793 3.8457 333.419V15.8815C3.8457 9.50698 9.00721 4.34804 15.3839 4.34804L360.184 4.3457C366.56 4.3457 371.719 9.50932 371.719 15.8815V333.419Z" fill="#B11CAB"/>
<path d="M226.412 198.366C220.49 204.289 213.505 208.729 205.455 211.688C197.402 214.648 188.343 216.127 178.28 216.127C153.296 216.127 133.284 208.609 118.249 193.571C103.21 178.535 95.6924 158.404 95.6924 133.184C95.6924 106.426 103.862 84.8164 120.202 68.3569C136.542 51.9004 158.091 43.6694 184.852 43.6694C215.873 43.6694 239.466 54.3564 255.628 75.7275C271.791 97.1021 279.873 128.272 279.873 169.239C279.873 213.285 271.228 247.031 253.941 270.476C236.652 293.92 211.787 305.642 179.346 305.642C156.967 305.642 138.91 299.809 125.175 288.147C111.438 276.486 103.92 260.591 102.619 240.46L153.948 240.638C155.13 248.808 158.327 254.907 163.539 258.931C168.748 262.958 176.088 264.97 185.562 264.97C198.349 264.97 208.119 259.405 214.867 248.274C221.617 237.146 225.462 220.509 226.412 198.366ZM225.525 132.119C225.525 117.555 221.882 106.041 214.601 97.5737C207.32 89.1094 197.402 84.8745 184.852 84.8745C173.01 84.8745 163.805 88.9595 157.234 97.1294C150.662 105.3 147.376 116.728 147.376 131.408C147.376 145.145 150.809 155.86 157.678 163.555C164.543 171.254 174.195 175.1 186.628 175.1C198.822 175.1 208.355 171.312 215.222 163.733C222.089 156.157 225.525 145.617 225.525 132.119Z" fill="white"/>
</svg>
