<svg width="376" height="349" viewBox="0 0 376 349" fill="none" xmlns="http://www.w3.org/2000/svg">
<path fill-rule="evenodd" clip-rule="evenodd" d="M371.719 333.419C371.719 339.793 366.56 344.965 360.184 344.965H15.3839C9.00721 344.965 3.8457 339.793 3.8457 333.419V15.8815C3.8457 9.50698 9.00721 4.34804 15.3839 4.34804L360.184 4.3457C366.56 4.3457 371.719 9.50932 371.719 15.8815V333.419Z" fill="#FF8300"/>
<path d="M186.983 298.182H133.878C135.771 263.49 144.149 229.093 159.01 194.992C173.867 160.891 195.091 127.384 222.683 94.4656H97.6458V51.1287H277.919V89.3147C249.972 120.102 228.513 152.663 213.534 187C198.556 221.339 189.704 258.398 186.983 298.182Z" fill="white"/>
</svg>
