<svg width="376" height="349" viewBox="0 0 376 349" fill="none" xmlns="http://www.w3.org/2000/svg">
<path fill-rule="evenodd" clip-rule="evenodd" d="M371.719 333.419C371.719 339.793 366.56 344.965 360.184 344.965H15.3839C9.00721 344.965 3.8457 339.793 3.8457 333.419V15.8815C3.8457 9.50698 9.00721 4.34804 15.3839 4.34804L360.184 4.3457C366.56 4.3457 371.719 9.50932 371.719 15.8815V333.419Z" fill="#EE6FBB"/>
<path d="M133.612 164.798C122.955 158.879 115.257 151.952 110.522 144.018C105.785 136.086 103.418 125.963 103.418 113.647C103.418 91.8623 110.878 74.7505 125.797 62.3179C140.716 49.8853 161.319 43.6689 187.605 43.6689C214.126 43.6689 234.876 49.8579 249.857 62.2295C264.833 74.6035 272.323 91.7427 272.323 113.647C272.323 125.369 269.777 135.523 264.687 144.107C259.595 152.693 251.956 159.589 241.775 164.798C254.208 170.601 263.56 178.624 269.837 188.864C276.113 199.107 279.251 211.571 279.251 226.25C279.251 251 271.109 270.417 254.829 284.506C238.548 298.596 216.138 305.642 187.605 305.642C158.713 305.642 136.276 298.654 120.291 284.684C104.306 270.714 96.3137 251.235 96.3137 226.25C96.3137 211.687 99.3025 199.462 105.283 189.575C111.26 179.69 120.704 171.431 133.612 164.798ZM147.82 224.475C147.82 236.908 151.283 246.499 158.21 253.248C165.137 259.997 175.052 263.371 187.96 263.371C200.273 263.371 209.952 259.938 216.999 253.07C224.042 246.204 227.566 236.671 227.566 224.475C227.566 212.752 223.952 203.339 216.732 196.235C209.509 189.13 199.917 185.579 187.96 185.579C175.999 185.579 166.319 189.192 158.921 196.413C151.519 203.636 147.82 212.991 147.82 224.475ZM151.905 115.423C151.905 125.252 154.983 132.801 161.141 138.068C167.296 143.338 176.118 145.972 187.605 145.972C199.087 145.972 207.941 143.308 214.157 137.979C220.374 132.651 223.482 125.133 223.482 115.423C223.482 105.952 220.284 98.4917 213.89 93.0444C207.497 87.5996 198.734 84.8745 187.605 84.8745C176.709 84.8745 168.037 87.6577 161.585 93.2222C155.13 98.7891 151.905 106.188 151.905 115.423Z" fill="white"/>
</svg>
