<svg width="376" height="349" viewBox="0 0 376 349" fill="none" xmlns="http://www.w3.org/2000/svg">
<path fill-rule="evenodd" clip-rule="evenodd" d="M371.719 333.419C371.719 339.793 366.56 344.965 360.184 344.965H15.3839C9.00721 344.965 3.8457 339.793 3.8457 333.419V15.8815C3.8457 9.50698 9.00721 4.34804 15.3839 4.34804L360.184 4.3457C366.56 4.3457 371.719 9.50932 371.719 15.8815V333.419Z" fill="#7B868C"/>
<path d="M149.064 150.768C154.864 144.848 161.852 140.377 170.022 137.358C178.192 134.338 187.309 132.829 197.373 132.829C222.239 132.829 242.158 140.408 257.139 155.563C272.115 170.721 279.606 190.907 279.606 216.127C279.606 242.888 271.436 264.498 255.096 280.954C238.756 297.414 217.205 305.642 190.448 305.642C159.543 305.642 136.068 294.985 120.025 273.673C103.979 252.359 95.9592 221.161 95.9592 180.073C95.9592 135.909 104.543 102.133 121.713 78.7471C138.88 55.3638 163.628 43.6694 195.953 43.6694C218.448 43.6694 236.594 49.5303 250.389 61.2524C264.182 72.9746 271.731 88.8433 273.035 108.852H221.528C220.344 100.682 217.147 94.5264 211.938 90.3804C206.727 86.2373 199.444 84.1641 190.092 84.1641C177.304 84.1641 167.474 89.7007 160.609 100.771C153.74 111.843 149.891 128.508 149.064 150.768ZM149.775 217.193C149.775 231.757 153.416 243.302 160.698 251.826C167.98 260.352 177.895 264.614 190.448 264.614C202.168 264.614 211.344 260.472 217.977 252.182C224.606 243.896 227.922 232.351 227.922 217.548C227.922 203.934 224.487 193.335 217.621 185.756C210.752 178.18 201.104 174.39 188.67 174.39C176.474 174.39 166.942 178.18 160.076 185.756C153.207 193.335 149.775 203.814 149.775 217.193Z" fill="white"/>
</svg>
