<svg width="376" height="349" viewBox="0 0 376 349" fill="none" xmlns="http://www.w3.org/2000/svg">
<path fill-rule="evenodd" clip-rule="evenodd" d="M371.719 333.419C371.719 339.793 366.56 344.965 360.184 344.965H15.3839C9.00721 344.965 3.8457 339.793 3.8457 333.419V15.8815C3.8457 9.50698 9.00721 4.34804 15.3839 4.34804L360.184 4.3457C366.56 4.3457 371.719 9.50932 371.719 15.8815V333.419Z" fill="#00953B"/>
<path d="M112.514 297.987V129.354H53.6045V94.731H57.394C78.8662 94.731 94.5142 91.4019 104.333 84.7407C114.15 78.082 119.921 66.9424 121.644 51.3237H161.089V297.987H112.514Z" fill="white"/>
<path d="M259.385 297.987V129.354H200.476V94.731H204.266C225.738 94.731 241.385 91.4019 251.204 84.7407C261.022 78.082 266.792 66.9424 268.515 51.3237H307.96V297.987H259.385Z" fill="white"/>
</svg>
