<svg width="376" height="349" viewBox="0 0 376 349" fill="none" xmlns="http://www.w3.org/2000/svg">
<path fill-rule="evenodd" clip-rule="evenodd" d="M371.719 333.419C371.719 339.793 366.56 344.965 360.184 344.965H15.3839C9.00721 344.965 3.8457 339.793 3.8457 333.419V15.8815C3.8457 9.50698 9.00721 4.34804 15.3839 4.34804L360.184 4.3457C366.56 4.3457 371.719 9.50932 371.719 15.8815V333.419Z" fill="#003DA6"/>
<path d="M91.6431 297.365V128.731H32.7334V94.1084H36.5229C57.9951 94.1084 73.6431 90.7793 83.4614 84.1182C93.2793 77.4595 99.0498 66.3198 100.772 50.7012H140.218V297.365H91.6431Z" fill="white"/>
<path d="M162.552 174.119C162.552 131.746 169.929 100.024 184.686 78.9507C199.44 57.8794 221.747 47.3423 251.606 47.3423C281.346 47.3423 303.652 57.936 318.525 79.1226C333.395 100.31 340.832 132.09 340.832 174.464C340.832 216.838 333.452 248.475 318.698 269.374C303.94 290.275 281.578 300.724 251.606 300.724C221.747 300.724 199.44 290.217 184.686 269.202C169.929 248.188 162.552 216.493 162.552 174.119ZM213.71 174.119C213.71 204.091 216.725 225.854 222.753 239.402C228.783 252.953 238.399 259.728 251.606 259.728C264.81 259.728 274.456 252.897 280.543 239.23C286.629 225.565 289.673 203.862 289.673 174.119C289.673 144.263 286.629 122.56 280.543 109.008C274.456 95.4595 264.81 88.6826 251.606 88.6826C238.399 88.6826 228.783 95.4302 222.753 108.922C216.725 122.417 213.71 144.147 213.71 174.119Z" fill="white"/>
</svg>
