<svg width="376" height="349" viewBox="0 0 376 349" fill="none" xmlns="http://www.w3.org/2000/svg">
<path fill-rule="evenodd" clip-rule="evenodd" d="M371.719 332.919C371.719 339.293 366.56 344.465 360.184 344.465H15.3839C9.00721 344.465 3.8457 339.293 3.8457 332.919V15.3815C3.8457 9.00698 9.00721 3.84804 15.3839 3.84804L360.184 3.8457C366.56 3.8457 371.719 9.00932 371.719 15.3815V332.919Z" fill="#FFCD00"/>
<path d="M96.5261 220.05H145.35C145.467 234.253 148.901 244.937 155.647 252.096C162.394 259.259 172.395 262.837 185.652 262.837C198.435 262.837 208.288 259.494 215.213 252.807C222.137 246.121 225.599 236.503 225.599 223.956C225.599 211.411 221.543 201.913 213.437 195.46C205.328 189.011 193.286 185.784 177.307 185.784C176.478 185.784 175.205 185.845 173.49 185.962C171.773 186.081 170.5 186.14 169.673 186.14V150.987H175.177C189.852 150.987 200.713 148.117 207.756 142.375C214.797 136.636 218.32 127.848 218.32 116.01C218.32 106.188 215.329 98.4055 209.354 92.6633C203.376 86.9241 195.239 84.053 184.942 84.053C173.696 84.053 164.996 87.3674 158.843 93.9954C152.687 100.625 149.611 110.035 149.611 122.224V124.355H101.675C102.265 98.3176 109.93 78.344 124.666 64.4348C139.402 50.5276 160.202 43.5735 187.073 43.5735C212.519 43.5735 232.7 49.7874 247.614 62.2151C262.528 74.6428 269.984 91.3928 269.984 112.459C269.984 123.586 267.438 133.351 262.35 141.754C257.26 150.159 249.625 157.083 239.447 162.527C252.466 168.207 262.32 176.05 269.008 186.051C275.694 196.054 279.039 207.977 279.039 221.825C279.039 247.275 270.695 267.453 254.006 282.367C237.317 297.281 214.53 304.738 185.652 304.738C157.126 304.738 135.141 297.486 119.695 282.989C104.249 268.491 96.5261 247.865 96.5261 221.115V220.05Z" fill="#003DA6"/>
</svg>
