<svg width="376" height="349" viewBox="0 0 376 349" fill="none" xmlns="http://www.w3.org/2000/svg">
<path fill-rule="evenodd" clip-rule="evenodd" d="M371.719 333.419C371.719 339.793 366.56 344.965 360.184 344.965H15.3839C9.00721 344.965 3.8457 339.793 3.8457 333.419V15.8815C3.8457 9.50698 9.00721 4.34804 15.3839 4.34804L360.184 4.3457C366.56 4.3457 371.719 9.50932 371.719 15.8815V333.419Z" fill="#E1251B"/>
<path d="M97.5024 301.776C97.7383 279.05 102.59 259.787 112.061 243.986C121.529 228.185 138.337 212.178 162.483 195.96C166.15 193.475 171.477 190.043 178.461 185.663C210.419 165.188 226.398 145.481 226.398 126.541C226.398 115.298 223.024 106.421 216.278 99.9104C209.531 93.4026 200.299 90.1458 188.582 90.1458C175.798 90.1458 165.945 94.1399 159.021 102.13C152.097 110.119 148.635 121.512 148.635 136.307V138.437H101.764C101.764 109.321 109.575 86.8918 125.199 71.1487C140.823 55.4084 163.074 47.5354 191.955 47.5354C218.112 47.5354 239.003 54.6682 254.627 68.929C270.251 83.1936 278.062 102.16 278.062 125.831C278.062 142.759 273.979 157.434 265.812 169.862C257.645 182.29 241.844 196.435 218.409 212.294C213.438 215.729 206.571 220.226 197.813 225.787C175.56 240.111 163.016 250.998 160.175 258.455H275.577V301.776H97.5024Z" fill="white"/>
</svg>
