<svg width="376" height="349" viewBox="0 0 376 349" fill="none" xmlns="http://www.w3.org/2000/svg">
<path fill-rule="evenodd" clip-rule="evenodd" d="M371.719 333.419C371.719 339.793 366.56 344.965 360.184 344.965H15.3839C9.00721 344.965 3.8457 339.793 3.8457 333.419V15.8815C3.8457 9.50698 9.00721 4.34804 15.3839 4.34804L360.184 4.3457C366.56 4.3457 371.719 9.50932 371.719 15.8815V333.419Z" fill="#A19200"/>
<path d="M90.9854 297.987V129.354H32.0757V94.731H35.8652C57.3374 94.731 72.9854 91.4019 82.8037 84.7407C92.6216 78.082 98.3921 66.9424 100.115 51.3237H139.56V297.987H90.9854Z" fill="white"/>
<path d="M164.311 297.987C164.539 275.939 169.247 257.25 178.435 241.92C187.621 226.589 203.928 211.06 227.354 195.326C230.912 192.914 236.08 189.585 242.856 185.335C273.862 165.47 289.364 146.35 289.364 127.976C289.364 117.067 286.092 108.455 279.546 102.138C273.001 95.8237 264.044 92.6641 252.675 92.6641C240.273 92.6641 230.713 96.5396 223.995 104.291C217.277 112.042 213.919 123.096 213.919 137.449V139.517H168.444C168.444 111.267 176.023 89.5068 191.182 74.2334C206.34 58.9619 227.928 51.3237 255.948 51.3237C281.325 51.3237 301.595 58.2437 316.752 72.0801C331.91 85.9194 339.489 104.321 339.489 127.287C339.489 143.709 335.527 157.947 327.604 170.005C319.681 182.062 304.351 195.786 281.613 211.173C276.79 214.505 270.129 218.867 261.632 224.264C240.042 238.16 227.871 248.724 225.115 255.958H337.078V297.987H164.311Z" fill="white"/>
</svg>
