<svg width="376" height="349" viewBox="0 0 376 349" fill="none" xmlns="http://www.w3.org/2000/svg">
<path fill-rule="evenodd" clip-rule="evenodd" d="M371.719 333.419C371.719 339.793 366.56 344.965 360.184 344.965H15.3839C9.00721 344.965 3.8457 339.793 3.8457 333.419V15.8815C3.8457 9.50698 9.00721 4.34804 15.3839 4.34804L360.184 4.3457C366.56 4.3457 371.719 9.50932 371.719 15.8815V333.419Z" fill="#80BC00"/>
<path d="M96.6147 226.143H146.326C147.153 237.27 150.881 245.88 157.511 251.975C164.139 258.073 173.016 261.118 184.143 261.118C197.872 261.118 208.377 257.096 215.656 249.045C222.936 240.998 226.575 229.457 226.575 214.425C226.575 200.341 222.847 189.244 215.39 181.136C207.933 173.03 197.636 168.974 184.498 168.974C177.158 168.974 170.708 170.455 165.146 173.412C159.581 176.372 154.848 180.753 150.942 186.551L105.137 183.888L121.648 47.5354H267.765V90.5003H157.511L150.942 141.455C156.504 137.077 162.896 133.793 170.117 131.602C177.335 129.413 185.385 128.317 194.263 128.317C219.59 128.317 240.038 136.012 255.604 151.398C271.166 166.785 278.95 186.967 278.95 211.94C278.95 239.281 270.367 261.091 253.207 277.364C236.043 293.639 213.021 301.776 184.143 301.776C157.867 301.776 136.944 295.057 121.382 281.624C105.816 268.193 97.5605 249.698 96.6147 226.143Z" fill="white"/>
</svg>
