<?xml version="1.0" encoding="utf-8"?>
<!-- Generator: Adobe Illustrator 26.5.0, SVG Export Plug-In . SVG Version: 6.00 Build 0)  -->
<svg version="1.1" id="Capa_1" xmlns="http://www.w3.org/2000/svg"
	xmlns:xlink="http://www.w3.org/1999/xlink" x="0px" y="0px"
	viewBox="0 0 375.5648804 348.3109741" style="enable-background:new 0 0 375.5648804 348.3109741;"
	xml:space="preserve">
<style type="text/css">
	.st0{fill-rule:evenodd;clip-rule:evenodd;fill:#FFFFFF;}
	.st1{fill:#A81B8D;}
</style>
<g>
	<path class="st0" d="M371.7192688,332.9186707c0,6.3745422-5.1593018,11.5465393-11.5358276,11.5465393H15.3837328
		c-6.3766422,0-11.5381517-5.1719971-11.5381517-11.5465393V15.3815603c0-6.3745403,5.1615095-11.5334816,11.5381517-11.5334816
		l344.7997131-0.0023351c6.3765259,0,11.5358276,5.1636119,11.5358276,11.5358181V332.9186707z"/>
		<path class="st1"
		d="M375.5343018,14.6072388l-0.0581665-0.7803345l-0.0888062-0.7723999l-0.147583-0.7635498l-0.1737061-0.7374268
		l-0.2020264-0.7285156l-0.237915-0.7158813l-0.2846069-0.7047119l-0.303833-0.6766968l-0.3289795-0.6640625L373.324585,7.402832
		l-0.3901978-0.6182861l-0.4277344-0.6029053l-0.4620972-0.5725098l-0.4813843-0.5683594l-0.5178833-0.5333252l-0.5210571-0.503418
		l-0.567749-0.4838257l-0.5731201-0.4464111l-0.6005859-0.4277954l-0.633606-0.4035034l-0.6327515-0.3684082l-0.6617432-0.3469849
		l-0.6939697-0.3035889l-0.6879272-0.2825317l-0.7153931-0.2400513l-0.7437134-0.2022095l-0.7376099-0.1737061l-0.7635498-0.1466064
		l-0.774292-0.0896606l-0.7804565-0.0579224L360.1834717,0v0.0153809L15.383728,0.0177612V0.0023193l-0.774292,0.0308228
		l-0.7804565,0.0579224l-0.774292,0.0887451l-0.7636719,0.147522l-0.7374878,0.1737671l-0.7283936,0.2022095L10.1088867,0.940979
		L9.4042969,1.2258911L8.7271118,1.5294189L8.0637817,1.8586426L7.4025879,2.2424927L6.7844238,2.6329346L6.1815186,3.06073
		L5.6083984,3.522583l-0.567749,0.4814453l-0.536377,0.503418L4.001709,5.0430908L3.5203247,5.593689L3.0582275,6.1816406
		L2.6305542,6.7999878L2.2426147,7.4177856L1.8737793,8.0491943l-0.34729,0.6635742L1.2233887,9.4044189l-0.2822876,0.7047119
		l-0.2409668,0.7005005l-0.2012939,0.7415771l-0.173584,0.7397461l-0.1477051,0.7635498l-0.0888672,0.7723999l-0.0581055,0.7803345
		L0,15.3815308v317.5371094l0.0305786,0.774292l0.0581055,0.7803345l0.0888672,0.7724609l0.1477051,0.7658691l0.173584,0.7373657
		l0.2012939,0.7439575l0.2409668,0.7000122l0.2822876,0.7052002l0.3031006,0.6939087l0.34729,0.6613159l0.3688354,0.633728
		l0.3879395,0.6177979l0.4276733,0.6183472l0.4620972,0.5725098l0.4813843,0.5683594l0.5025635,0.5356445l0.536377,0.503418
		l0.5524292,0.4833374l0.5884399,0.4623413l0.6029053,0.4268188l0.6181641,0.3904419l0.645874,0.3688965l0.6640625,0.3469849
		l0.6917725,0.3031006l0.68927,0.2848511l0.7315674,0.2400513l0.7283936,0.1998901l0.7374878,0.1760254l0.7636719,0.147583
		l0.774292,0.0864258l0.7651978,0.0602417l0.7895508,0.0308228h344.7997437l0.7888794-0.0308228l0.7658691-0.0602417
		l0.774292-0.0864258l0.7635498-0.147583l0.7376099-0.1760254l0.7283936-0.1998901l0.7307129-0.2400513l0.6879272-0.2848511
		l0.6939697-0.3031006l0.6617432-0.3469849l0.6327515-0.3688965l0.633606-0.4053955l0.6005859-0.4249268l0.5875854-0.4492798
		l0.5532837-0.4833374l0.5355225-0.503418l0.503418-0.5356445l0.4813843-0.5683594l0.4620972-0.5725098l0.4277344-0.6029053
		l0.3901978-0.6332397l0.3840942-0.6481934l0.3289795-0.6617432l0.303833-0.6790161l0.2846069-0.7052002l0.237915-0.7154541
		l0.2020264-0.7285156l0.1737061-0.7373657l0.147583-0.7658691l0.0888062-0.7724609l0.0581665-0.7803345l0.0305786-0.774292
		V15.3815308L375.5343018,14.6072388z
		M367.8737793,15.3815308v317.5371094v0.4142456l-0.0282593,0.3899536l-0.0582886,0.381958
		l-0.0565796,0.3754883l-0.0818481,0.3773193l-0.1109009,0.3689575l-0.1217041,0.355835l-0.1323853,0.3441772l-0.1560669,0.3451538
		l-0.1774902,0.3320312l-0.1713867,0.3179932l-0.2127075,0.3040161l-0.2150269,0.3035889l-0.2233887,0.2993164l-0.2425537,0.2694702
		l-0.2601318,0.2661743l-0.2670288,0.2606201l-0.2839355,0.2451782l-0.2846069,0.2362671l-0.3014526,0.2166748l-0.3029785,0.1970825
		l-0.3343506,0.1868286l-0.3320923,0.1643677l-0.3297729,0.1569214l-0.3572998,0.1316528l-0.3405151,0.1237793l-0.3687134,0.1088257
		l-0.3771973,0.0840454l-0.3734131,0.0569458l-0.3840942,0.0565186l-0.4055786,0.0299072h-0.3985596H15.383728h-0.399353
		l-0.4055176-0.0299072l-0.3833618-0.0565186l-0.3734131-0.0569458l-0.3771973-0.0840454l-0.3688354-0.1088257l-0.3403931-0.1237793
		l-0.3604126-0.1316528l-0.3275146-0.1569214l-0.3335571-0.1643677l-0.3167114-0.1868286l-0.3190918-0.2124634l-0.303772-0.2143555
		l-0.2838135-0.2232056l-0.2839355-0.2451782l-0.2670288-0.2606201l-0.2601318-0.2661743l-0.2432861-0.2694702l-0.2234497-0.2993164
		l-0.2142334-0.288147l-0.2103882-0.319458l-0.1867065-0.3334351l-0.1644897-0.3320312l-0.1560669-0.3297119l-0.1309204-0.3441772
		l-0.1231689-0.3712769l-0.1109009-0.3535156l-0.0818481-0.3773193l-0.0566406-0.3754883l-0.05896-0.381958l-0.0275269-0.3899536
		v-0.4142456V15.3815308v-0.4141846l0.0275269-0.3899536l0.05896-0.382019l0.0566406-0.3731689l0.0818481-0.3796387
		l0.1109009-0.3511963l0.1231689-0.3712769l0.1309204-0.3441772l0.1560669-0.3273315l0.1644897-0.3344116l0.1867065-0.3320312
		l0.2103882-0.3184814l0.2142334-0.288147l0.2234497-0.2848511l0.2432861-0.2816162l0.2601318-0.2670898l0.2670288-0.2601318
		l0.2686157-0.2423706l0.2991333-0.2232056l0.303772-0.215332l0.3190918-0.2124634l0.3014526-0.1713867l0.3335571-0.1774902
		l0.3427734-0.1564331l0.3450928-0.1321411l0.3557129-0.1218872l0.3688354-0.1106567l0.3771973-0.0817261l0.3734131-0.0570068
		l0.3833618-0.0588379l0.3908691-0.0275269h0.4140015V7.6779175l344.7997437-0.0018311V7.690979h0.4138794l0.3902588,0.0285034
		l0.3840942,0.0579224l0.3734131,0.0569458l0.3771973,0.0827026l0.3533936,0.1101685l0.355835,0.1237793l0.3572998,0.1303101
		l0.3297729,0.1559448l0.3320923,0.1643677l0.3343506,0.1868286l0.3029785,0.1951904l0.3014526,0.2194824l0.2999268,0.2340088
		l0.2686157,0.2446899l0.2822876,0.2601318l0.244873,0.2647705l0.2425537,0.2684937l0.2233887,0.300293l0.2150269,0.3035889
		l0.2127075,0.3184814l0.1713867,0.3012085l0.1774902,0.3343506l0.1560669,0.3427734l0.1323853,0.3441772l0.1217041,0.355896
		l0.1109009,0.3688965l0.0818481,0.3773193l0.0565796,0.3731689l0.0582886,0.382019l0.0282593,0.3899536V15.3815308z"/>
	<g>
		<path class="st1" d="M97.5023956,301.2756042c0.2358398-22.7255859,5.0878906-41.9882812,14.5585938-57.7900543
			c9.4677734-15.8007812,26.2758789-31.8076172,50.421875-48.0253906c3.6674805-2.4853516,8.9936523-5.9169922,15.9785156-10.296875
			c31.9575195-20.4755859,47.9365234-40.1826172,47.9365234-59.1220627c0-11.2431641-3.3735352-20.1201172-10.1201172-26.6308594
			c-6.746582-6.5078125-15.9785156-9.7646484-27.6962891-9.7646484c-12.7832031,0-22.6367188,3.9941406-29.5605469,11.984375
			c-6.9243164,7.9892578-10.3862305,19.3818359-10.3862305,34.1767502v2.1298828h-46.8710938
			c0-29.1162033,7.8115234-51.5449142,23.4355469-67.2880783c15.6235352-15.7402382,37.8745117-23.6132851,66.7553711-23.6132851
			c26.1572266,0,47.0488281,7.1328125,62.6723633,21.3935585c15.6240082,14.2646484,23.4355316,33.2314453,23.4355316,56.9023438
			c0,16.9277267-4.0834961,31.6025314-12.2504883,44.0302658c-8.1665039,12.4287109-23.9677582,26.5732422-47.4033051,42.4326172
			c-4.9711914,3.4345703-11.8374023,7.9316406-20.5952148,13.4931641
			c-22.253418,14.3232422-34.7978516,25.2109375-37.6386719,32.667984h115.4023285v43.3203125H97.5023956z"/>
	</g>
</g>
</svg>