<svg width="426" height="426" viewBox="0 0 426 426" fill="none" xmlns="http://www.w3.org/2000/svg">
<path d="M426 91H0V334.75H426V91Z" fill="#EC6725"/>
<path fill-rule="evenodd" clip-rule="evenodd" d="M0 334.75V91H426L0 334.75Z" fill="#C20831"/>
<path d="M212.523 233.897C212.523 243.662 211.058 252.369 208.129 260.018C205.199 267.668 201.008 274.137 195.556 279.426C190.104 284.715 183.513 288.703 175.782 291.388C168.052 294.073 159.386 295.416 149.784 295.416C129.928 295.416 114.508 290.086 103.523 279.426C92.5369 268.766 87.0439 253.59 87.0439 233.897V129.902H126.592V231.456C126.592 236.339 126.918 240.896 127.569 245.127C128.22 249.358 129.44 253.02 131.23 256.112C133.021 259.205 135.38 261.646 138.31 263.436C141.239 265.226 145.064 266.121 149.784 266.121C154.178 266.121 157.84 265.226 160.769 263.436C163.698 261.646 166.099 259.205 167.971 256.112C169.842 253.02 171.144 249.358 171.877 245.127C172.609 240.896 172.975 236.339 172.975 231.456V129.902H212.523V233.897Z" fill="white"/>
<path d="M317.251 244.883C317.251 241.302 316.885 237.925 316.152 234.752C315.42 231.578 314.281 228.771 312.734 226.33C311.188 223.888 309.195 221.976 306.754 220.593C304.312 219.209 301.383 218.518 297.965 218.518C290.967 218.518 286.003 221.081 283.074 226.208C280.144 231.334 278.68 237.559 278.68 244.883C278.68 248.301 279.005 251.637 279.656 254.892C280.307 258.147 281.365 261.076 282.83 263.68C284.294 266.284 286.247 268.359 288.689 269.905C291.13 271.451 294.222 272.224 297.965 272.224C302.034 272.224 305.329 271.451 307.852 269.905C310.375 268.359 312.328 266.284 313.711 263.68C315.094 261.076 316.03 258.147 316.518 254.892C317.007 251.637 317.251 248.301 317.251 244.883ZM314.321 174.576C314.321 171.809 314.036 169.124 313.467 166.52C312.897 163.916 311.961 161.638 310.659 159.685C309.357 157.732 307.649 156.145 305.533 154.924C303.417 153.704 300.895 153.093 297.965 153.093C292.106 153.093 287.915 155.25 285.393 159.563C282.87 163.875 281.609 168.88 281.609 174.576C281.609 177.18 281.853 179.825 282.341 182.51C282.83 185.195 283.725 187.677 285.027 189.956C286.329 192.234 287.997 194.106 290.031 195.57C292.066 197.035 294.71 197.767 297.965 197.767C301.057 197.767 303.621 197.117 305.655 195.815C307.689 194.513 309.357 192.763 310.659 190.566C311.961 188.369 312.897 185.887 313.467 183.12C314.036 180.354 314.321 177.505 314.321 174.576ZM354.845 247.812C354.845 254.485 353.503 260.751 350.817 266.61C348.132 272.469 344.267 277.514 339.222 281.745C334.176 285.977 328.155 289.313 321.157 291.754C314.159 294.195 306.428 295.416 297.965 295.416C289.665 295.416 282.057 294.358 275.14 292.242C268.223 290.127 262.242 287.034 257.197 282.966C252.152 278.897 248.205 273.893 245.357 267.952C242.509 262.012 241.085 255.299 241.085 247.812C241.085 241.791 242.143 236.379 244.258 231.578C246.374 226.777 248.978 222.668 252.07 219.25C255.163 215.832 258.54 213.066 262.201 210.95C265.863 208.834 269.322 207.37 272.577 206.556C270.135 205.579 267.369 204.196 264.276 202.406C261.184 200.616 258.214 198.296 255.366 195.448C252.518 192.6 250.158 189.183 248.286 185.195C246.415 181.208 245.479 176.529 245.479 171.158C245.479 164.648 246.903 158.83 249.751 153.704C252.599 148.577 256.424 144.264 261.225 140.765C266.026 137.266 271.6 134.581 277.947 132.709C284.294 130.838 290.967 129.902 297.965 129.902C305.126 129.902 311.88 130.756 318.227 132.465C324.574 134.174 330.148 136.778 334.95 140.277C339.751 143.776 343.534 148.089 346.301 153.215C349.068 158.342 350.451 164.323 350.451 171.158C350.451 176.854 349.434 181.737 347.4 185.806C345.365 189.874 342.965 193.251 340.198 195.937C337.431 198.622 334.461 200.778 331.288 202.406C328.114 204.033 325.469 205.173 323.354 205.823C327.097 207.288 330.84 209.119 334.583 211.316C338.327 213.513 341.704 216.239 344.714 219.494C347.725 222.749 350.166 226.696 352.038 231.334C353.91 235.972 354.845 241.465 354.845 247.812Z" fill="white"/>
</svg>
