<svg width="426" height="426" viewBox="0 0 426 426" fill="none" xmlns="http://www.w3.org/2000/svg">
<path d="M426 91H0V334.75H426V91Z" fill="#0065AE"/>
<path d="M212.523 233.897C212.523 243.662 211.058 252.369 208.129 260.018C205.199 267.668 201.008 274.137 195.556 279.426C190.104 284.715 183.513 288.703 175.782 291.388C168.052 294.073 159.386 295.416 149.784 295.416C129.928 295.416 114.508 290.086 103.523 279.426C92.5369 268.766 87.0439 253.59 87.0439 233.897V129.902H126.592V231.456C126.592 236.339 126.918 240.896 127.569 245.127C128.22 249.358 129.44 253.02 131.23 256.112C133.021 259.205 135.38 261.646 138.31 263.436C141.239 265.226 145.064 266.121 149.784 266.121C154.178 266.121 157.84 265.226 160.769 263.436C163.698 261.646 166.099 259.205 167.971 256.112C169.842 253.02 171.144 249.358 171.877 245.127C172.609 240.896 172.975 236.339 172.975 231.456V129.902H212.523V233.897Z" fill="white"/>
<path d="M315.786 243.418C315.786 239.838 315.501 236.42 314.932 233.165C314.362 229.91 313.385 227.021 312.002 224.499C310.619 221.976 308.788 219.983 306.509 218.518C304.231 217.053 301.301 216.321 297.721 216.321C292.513 216.321 288.2 218.843 284.783 223.888C281.365 228.934 279.656 235.444 279.656 243.418C279.656 246.673 279.941 250.009 280.51 253.427C281.08 256.845 282.057 259.937 283.44 262.704C284.823 265.47 286.654 267.749 288.933 269.539C291.211 271.329 294.141 272.224 297.721 272.224C301.301 272.224 304.272 271.451 306.631 269.905C308.991 268.359 310.822 266.243 312.124 263.558C313.426 260.873 314.362 257.781 314.932 254.282C315.501 250.782 315.786 247.161 315.786 243.418ZM354.357 242.686C354.357 249.196 353.218 255.624 350.939 261.971C348.661 268.319 345.203 273.974 340.564 278.938C335.926 283.902 330.067 287.889 322.988 290.9C315.908 293.911 307.486 295.416 297.721 295.416C287.468 295.416 278.761 293.829 271.6 290.656C264.439 287.482 258.662 283.21 254.267 277.839C249.873 272.469 246.659 266.203 244.625 259.042C242.59 251.881 241.573 244.313 241.573 236.339C241.573 225.272 243.282 214.286 246.7 203.382C250.117 192.478 254.837 182.103 260.859 172.257C266.88 162.411 273.96 153.297 282.097 144.915C290.235 136.534 299.023 129.414 308.462 123.555L340.198 140.399C335.153 143.491 329.538 147.763 323.354 153.215C317.169 158.667 311.27 164.567 305.655 170.914C300.04 177.261 295.117 183.771 290.886 190.444C286.654 197.117 283.969 203.301 282.83 208.997C287.061 203.138 291.862 199.029 297.233 196.669C302.603 194.309 307.974 193.129 313.345 193.129C320.506 193.129 326.649 194.35 331.776 196.791C336.902 199.232 341.134 202.65 344.47 207.044C347.807 211.438 350.288 216.687 351.916 222.79C353.543 228.893 354.357 235.525 354.357 242.686Z" fill="white"/>
</svg>
