<svg width="426" height="426" viewBox="0 0 426 426" fill="none" xmlns="http://www.w3.org/2000/svg">
<path d="M426 91H0V334.75H426V91Z" fill="#C20831"/>
<path fill-rule="evenodd" clip-rule="evenodd" d="M0 334.75V91H426L0 334.75Z" fill="#52822F"/>
<path d="M212.523 233.897C212.523 243.662 211.058 252.369 208.129 260.018C205.199 267.668 201.008 274.137 195.556 279.426C190.104 284.715 183.513 288.703 175.782 291.388C168.052 294.073 159.386 295.416 149.784 295.416C129.928 295.416 114.508 290.086 103.523 279.426C92.5369 268.766 87.0439 253.59 87.0439 233.897V129.902H126.592V231.456C126.592 236.339 126.918 240.896 127.569 245.127C128.22 249.358 129.44 253.02 131.23 256.112C133.021 259.205 135.38 261.646 138.31 263.436C141.239 265.226 145.064 266.121 149.784 266.121C154.178 266.121 157.84 265.226 160.769 263.436C163.698 261.646 166.099 259.205 167.971 256.112C169.842 253.02 171.144 249.358 171.877 245.127C172.609 240.896 172.975 236.339 172.975 231.456V129.902H212.523V233.897Z" fill="white"/>
<path d="M351.184 148.944C346.301 160.337 341.337 172.624 336.292 185.807C331.247 198.989 326.202 212.294 321.157 225.72C316.111 239.147 311.148 252.33 306.265 265.268C301.383 278.206 296.826 290.046 292.594 300.788L256.22 286.629C260.289 276.538 264.683 265.838 269.403 254.527C274.123 243.216 278.924 231.945 283.806 220.716C288.689 209.486 293.49 198.623 298.209 188.126C302.929 177.628 307.242 168.148 311.148 159.686H243.038V132.588H351.184V148.944Z" fill="white"/>
</svg>
