<svg width="1060" height="1059" viewBox="0 0 1060 1059" fill="none" xmlns="http://www.w3.org/2000/svg">
<g clip-path="url(#clip0_1439_149)">
<path d="M787.5 298H272.173C143.773 298 0 402.088 0 530.488C0 658.888 143.773 762.976 272.173 762.976H787.5C915.9 762.976 1059.67 658.888 1059.67 530.488C1059.67 402.088 915.901 298 787.5 298Z" fill="#F05A73"/>
<path d="M200.164 596.984C200.584 611.599 201.424 653.431 251.404 653.431C258.544 653.431 296.344 653.431 296.344 612.103C296.344 594.968 290.464 583.376 270.304 576.826L195.964 553.64C174.964 547.087 120.784 529.952 120.784 453.849C120.784 394.881 157.744 339.945 248.464 339.945C366.903 339.945 371.943 417.057 372.363 455.864H287.103C287.103 444.776 287.523 405.465 247.203 405.465C222.843 405.465 207.304 422.097 207.304 443.769C207.304 470.481 225.784 477.033 237.964 481.065L294.664 498.705C334.984 511.305 382.864 526.425 382.864 603.537C382.864 684.682 324.904 720.969 248.885 720.969C217.385 720.969 166.565 714.92 138.845 677.625C116.585 648.393 116.165 612.609 115.745 596.984H200.164Z" fill="white"/>
<path d="M416.038 640.328C481.978 581.865 537.837 531.465 559.257 494.673C564.717 484.089 569.757 470.985 569.757 454.858C569.757 423.61 548.757 419.578 538.257 419.578C506.757 419.578 504.657 450.826 503.819 460.402H421.92C421.92 449.314 422.76 422.098 442.92 392.866C467.7 357.083 517.679 352.547 542.46 352.547C586.981 352.547 618.899 366.155 637.8 395.387C648.72 412.019 653.34 431.675 653.34 451.834C653.34 524.41 596.22 573.802 515.58 643.353H654.18V712.906H416.038V640.328Z" fill="white"/>
<path d="M728.936 398.411C754.555 361.115 791.936 353.555 818.395 353.555C873.834 353.555 898.615 379.763 911.214 398.915C930.533 426.635 945.653 466.45 945.653 536.002C945.653 636.297 912.892 719.961 819.654 719.961C786.052 719.961 752.454 707.865 730.614 677.625C698.694 633.777 694.074 571.281 694.074 536.506C694.074 503.242 698.694 441.754 728.936 398.411ZM819.234 653.432C832.254 653.432 845.273 645.873 851.574 632.768C864.174 605.553 864.174 547.592 864.174 540.034C864.174 522.394 862.914 481.57 857.034 455.867C854.094 443.267 847.374 420.084 820.494 420.084C796.973 420.084 776.394 432.18 776.394 538.019C776.395 612.61 784.794 653.432 819.234 653.432Z" fill="white"/>
</g>
<defs>
<clipPath id="clip0_1439_149">
<rect width="1059.67" height="1059" fill="white"/>
</clipPath>
</defs>
</svg>
