<svg width="1060" height="1059" viewBox="0 0 1060 1059" fill="none" xmlns="http://www.w3.org/2000/svg">
<g clip-path="url(#clip0_1439_186)">
<path d="M787.5 298H272.173C143.773 298 0 402.088 0 530.488C0 658.888 143.773 762.976 272.173 762.976H787.5C915.9 762.976 1059.67 658.888 1059.67 530.488C1059.67 402.088 915.901 298 787.5 298Z" fill="#7B107D"/>
<path d="M303.041 597.119C303.545 611.735 304.553 653.567 364.528 653.567C373.096 653.567 418.456 653.567 418.456 612.239C418.456 595.103 411.4 583.511 387.208 576.959L298.001 553.775C272.801 547.223 207.785 530.087 207.785 453.984C207.785 395.016 252.137 340.08 361 340.08C503.127 340.08 509.175 417.192 509.679 455.999H407.368C407.368 444.911 407.872 405.6 359.489 405.6C330.257 405.6 311.609 422.232 311.609 443.904C311.609 470.616 333.785 477.168 348.401 481.2L416.441 498.84C464.825 511.44 522.281 526.561 522.281 603.672C522.281 684.816 452.729 721.104 361.505 721.104C323.705 721.104 262.722 715.055 229.458 677.76C202.746 648.528 202.242 612.744 201.738 597.119H303.041Z" fill="white"/>
<path d="M654.826 612.239C655.834 634.92 667.93 654.575 705.729 654.575C748.065 654.575 760.161 629.879 760.161 608.207C760.161 563.352 706.737 563.352 686.577 563.352C675.489 563.352 665.409 563.856 658.857 564.36V501.864C671.961 502.368 691.113 503.376 711.777 500.352C755.121 494.304 755.121 460.032 755.121 456C755.121 431.808 735.97 416.688 707.745 416.688C690.609 416.688 664.401 422.736 662.89 457.008H565.619C568.139 383.928 631.642 352.176 711.274 352.176C801.994 352.176 850.881 391.992 850.881 444.911C850.881 487.247 817.617 523.03 769.737 528.071V530.591C788.384 532.607 857.936 540.671 857.936 615.767C857.936 640.966 849.873 669.191 821.144 689.855C804.008 702.455 775.785 719.59 706.737 719.59C648.777 719.59 610.473 707.494 583.761 679.271C559.57 654.071 558.058 628.367 557.049 612.239H654.826Z" fill="white"/>
</g>
<defs>
<clipPath id="clip0_1439_186">
<rect width="1059.67" height="1059" fill="white"/>
</clipPath>
</defs>
</svg>
