<svg width="426" height="426" viewBox="0 0 426 426" fill="none" xmlns="http://www.w3.org/2000/svg">
<path d="M426 91H0V334.75H426V91Z" fill="#EC6725"/>
<path d="M212.523 233.897C212.523 243.662 211.058 252.369 208.129 260.018C205.199 267.668 201.008 274.137 195.556 279.426C190.104 284.715 183.513 288.703 175.782 291.388C168.052 294.073 159.386 295.416 149.784 295.416C129.928 295.416 114.508 290.086 103.523 279.426C92.5369 268.766 87.0439 253.59 87.0439 233.897V129.902H126.592V231.456C126.592 236.339 126.918 240.896 127.569 245.127C128.22 249.358 129.44 253.02 131.23 256.112C133.021 259.205 135.38 261.646 138.31 263.436C141.239 265.226 145.064 266.121 149.784 266.121C154.178 266.121 157.84 265.226 160.769 263.436C163.698 261.646 166.099 259.205 167.971 256.112C169.842 253.02 171.144 249.358 171.877 245.127C172.609 240.896 172.975 236.339 172.975 231.456V129.902H212.523V233.897Z" fill="white"/>
<path d="M348.01 244.639C348.01 261.402 342.477 274.055 331.41 282.6C320.343 291.144 304.638 295.416 284.294 295.416C281.69 295.416 278.517 295.253 274.774 294.928C271.03 294.602 267.206 294.195 263.3 293.707C259.394 293.219 255.61 292.568 251.948 291.754C248.286 290.94 245.235 290.045 242.794 289.069L245.479 261.483C251.663 264.413 258.011 266.325 264.521 267.22C271.03 268.115 276.32 268.563 280.388 268.563C291.13 268.563 298.657 266.243 302.97 261.605C307.282 256.967 309.439 250.498 309.439 242.198C309.439 236.664 307.16 232.026 302.603 228.283C298.047 224.539 292.106 222.668 284.783 222.668H260.126V195.815H285.271C292.757 195.815 298.291 193.821 301.871 189.834C305.452 185.846 307.242 181.004 307.242 175.308C307.242 170.1 305.452 165.706 301.871 162.126C298.291 158.545 292.839 156.755 285.515 156.755C279.493 156.755 273.634 157.203 267.938 158.098C262.242 158.993 256.302 160.661 250.117 163.102L245.235 136.249C252.559 133.97 260.086 132.343 267.816 131.367C275.547 130.39 283.074 129.902 290.397 129.902C298.047 129.902 305.167 130.716 311.758 132.343C318.349 133.97 324.086 136.493 328.969 139.911C333.851 143.328 337.716 147.682 340.564 152.971C343.412 158.261 344.836 164.567 344.836 171.891C344.836 177.099 343.779 181.696 341.663 185.683C339.547 189.671 336.943 193.089 333.851 195.937C330.759 198.785 327.382 201.063 323.72 202.772C320.058 204.481 316.762 205.661 313.833 206.312C318.064 207.125 322.215 208.55 326.283 210.584C330.352 212.618 334.014 215.263 337.269 218.518C340.524 221.773 343.128 225.597 345.081 229.991C347.034 234.386 348.01 239.268 348.01 244.639Z" fill="white"/>
</svg>
