<svg width="1060" height="1059" viewBox="0 0 1060 1059" fill="none" xmlns="http://www.w3.org/2000/svg">
<g clip-path="url(#clip0_1439_192)">
<path d="M787.5 298H272.173C143.773 298 0 402.088 0 530.488C0 658.888 143.773 762.976 272.173 762.976H787.5C915.9 762.976 1059.67 658.888 1059.67 530.488C1059.67 402.088 915.901 298 787.5 298Z" fill="#71BF44"/>
<path d="M304.841 597.118C305.345 611.733 306.353 653.566 366.329 653.566C374.897 653.566 420.257 653.566 420.257 612.237C420.257 595.102 413.201 583.51 389.009 576.958L299.801 553.775C274.601 547.221 209.585 530.088 209.585 453.984C209.585 395.016 253.937 340.08 362.801 340.08C504.928 340.08 510.976 417.192 511.48 455.999H409.169C409.169 444.912 409.673 405.6 361.289 405.6C332.057 405.6 313.41 422.232 313.41 443.904C313.41 470.615 335.586 477.168 350.202 481.199L418.242 498.839C466.626 511.439 524.082 526.559 524.082 603.668C524.082 684.813 454.53 721.1 363.307 721.1C325.507 721.1 264.523 715.052 231.26 677.755C204.548 648.525 204.044 612.739 203.54 597.116H304.841V597.118Z" fill="white"/>
<path d="M563.893 640.461C643.02 581.999 710.051 531.6 735.755 494.808C742.307 484.224 748.355 471.12 748.355 454.992C748.355 423.744 723.155 419.712 710.555 419.712C672.756 419.712 670.236 450.96 669.228 460.536H570.949C570.949 449.448 571.957 422.232 596.149 393C625.883 357.216 685.86 352.68 715.595 352.68C769.02 352.68 807.323 366.288 830.003 395.52C843.107 412.152 848.65 431.808 848.65 451.967C848.65 524.543 780.106 573.932 683.338 643.484H849.657V713.037H563.893V640.461Z" fill="white"/>
</g>
<defs>
<clipPath id="clip0_1439_192">
<rect width="1059.67" height="1059" fill="white"/>
</clipPath>
</defs>
</svg>
