<svg width="1060" height="1059" viewBox="0 0 1060 1059" fill="none" xmlns="http://www.w3.org/2000/svg">
<g clip-path="url(#clip0_1439_168)">
<path d="M787.5 298H272.173C143.773 298 0 402.088 0 530.488C0 658.888 143.773 762.976 272.173 762.976H787.5C915.9 762.976 1059.67 658.888 1059.67 530.488C1059.67 402.088 915.901 298 787.5 298Z" fill="#008A51"/>
<path d="M303.042 597.122C303.546 611.737 304.554 653.569 364.529 653.569C373.097 653.569 418.457 653.569 418.457 612.241C418.457 595.105 411.401 583.513 387.209 576.962L298.001 553.778C272.801 547.225 207.785 530.09 207.785 453.986C207.785 395.018 252.137 340.082 361 340.082C503.127 340.082 509.175 417.194 509.679 456.001H407.369C407.369 444.913 407.873 405.602 359.49 405.602C330.258 405.602 311.61 422.234 311.61 443.906C311.61 470.618 333.786 477.17 348.402 481.202L416.442 498.842C464.826 511.442 522.282 526.562 522.282 603.673C522.282 684.818 452.73 721.105 361.506 721.105C323.706 721.105 262.723 715.058 229.459 677.761C202.747 648.53 202.243 612.745 201.739 597.122H303.042Z" fill="white"/>
<path d="M752.604 449.955C751.092 433.827 744.036 424.755 735.467 419.211C727.404 414.171 718.332 413.163 712.787 413.163C685.068 413.163 670.451 433.827 662.892 452.979C654.324 474.147 654.828 502.371 654.828 521.019C663.396 508.419 684.564 477.171 744.539 477.171C814.596 477.171 860.459 522.531 860.459 591.579C860.459 688.85 779.818 720.099 716.82 720.099C674.988 720.099 626.099 708.507 596.363 663.652C575.699 632.908 563.099 593.595 563.099 537.652C563.099 446.428 599.388 353.693 718.835 353.693C765.706 353.693 841.306 367.805 844.833 449.957H752.604V449.955ZM718.332 537.147C682.547 537.147 662.387 561.338 662.387 597.626C662.387 641.979 690.612 655.082 716.315 655.082C751.596 655.082 771.756 631.394 771.756 596.113C771.756 583.514 768.73 537.147 718.332 537.147Z" fill="white"/>
</g>
<defs>
<clipPath id="clip0_1439_168">
<rect width="1059.67" height="1059" fill="white"/>
</clipPath>
</defs>
</svg>
