<svg width="1060" height="1059" viewBox="0 0 1060 1059" fill="none" xmlns="http://www.w3.org/2000/svg">
<g clip-path="url(#clip0_1439_162)">
<path d="M787.5 298H272.173C143.773 298 0 402.088 0 530.488C0 658.888 143.773 762.976 272.173 762.976H787.5C915.9 762.976 1059.67 658.888 1059.67 530.488C1059.67 402.088 915.901 298 787.5 298Z" fill="#963833"/>
<path d="M303.042 597.123C303.546 611.739 304.554 653.571 364.529 653.571C373.097 653.571 418.457 653.571 418.457 612.243C418.457 595.107 411.401 583.515 387.209 576.963L298.001 553.779C272.801 547.227 207.785 530.091 207.785 453.988C207.785 395.02 252.137 340.084 361 340.084C503.127 340.084 509.175 417.196 509.679 456.003H407.37C407.37 444.915 407.874 405.604 359.491 405.604C330.259 405.604 311.611 422.236 311.611 443.908C311.611 470.62 333.787 477.172 348.403 481.204L416.443 498.844C464.827 511.444 522.283 526.564 522.283 603.676C522.283 684.82 452.73 721.108 361.507 721.108C323.707 721.108 262.724 715.059 229.46 677.764C202.748 648.532 202.244 612.748 201.74 597.123H303.042Z" fill="white"/>
<path d="M567.637 364.779H845.34V435.339L713.797 713.041H601.404L746.052 435.842H567.637V364.779Z" fill="white"/>
</g>
<defs>
<clipPath id="clip0_1439_162">
<rect width="1059.67" height="1059" fill="white"/>
</clipPath>
</defs>
</svg>
