<svg width="426" height="426" viewBox="0 0 426 426" fill="none" xmlns="http://www.w3.org/2000/svg">
<path d="M426 91H0V334.75H426V91Z" fill="#C20831"/>
<path d="M212.523 233.897C212.523 243.662 211.058 252.369 208.129 260.018C205.199 267.668 201.008 274.137 195.556 279.426C190.104 284.715 183.513 288.703 175.782 291.388C168.052 294.073 159.386 295.416 149.784 295.416C129.928 295.416 114.508 290.086 103.523 279.426C92.5369 268.766 87.0439 253.59 87.0439 233.897V129.902H126.592V231.456C126.592 236.339 126.918 240.896 127.569 245.127C128.22 249.358 129.44 253.02 131.23 256.112C133.021 259.205 135.38 261.646 138.31 263.436C141.239 265.226 145.064 266.121 149.784 266.121C154.178 266.121 157.84 265.226 160.769 263.436C163.698 261.646 166.099 259.205 167.971 256.112C169.842 253.02 171.144 249.358 171.877 245.127C172.609 240.896 172.975 236.339 172.975 231.456V129.902H212.523V233.897Z" fill="white"/>
<path d="M242.794 292.731V274.666C242.794 266.366 244.462 258.961 247.798 252.451C251.135 245.941 255.285 240 260.248 234.63C265.212 229.259 270.624 224.255 276.482 219.616C282.341 214.978 287.753 210.34 292.717 205.701C297.68 201.063 301.83 196.303 305.167 191.42C308.503 186.538 310.171 181.167 310.171 175.308C310.171 169.612 308.422 165.096 304.923 161.76C301.424 158.423 296.012 156.755 288.689 156.755C283.969 156.755 279.005 157.162 273.797 157.976C268.589 158.789 262.079 161.231 254.267 165.299L245.723 139.423C253.047 135.679 261.103 133.157 269.891 131.855C278.68 130.553 287.061 129.902 295.036 129.902C302.685 129.902 309.764 130.756 316.274 132.465C322.784 134.174 328.44 136.778 333.241 140.277C338.042 143.776 341.826 148.292 344.592 153.826C347.359 159.359 348.742 165.869 348.742 173.355C348.742 180.679 347.074 187.555 343.738 193.984C340.402 200.412 336.251 206.474 331.288 212.171C326.324 217.867 320.913 223.156 315.054 228.039C309.195 232.921 303.783 237.559 298.82 241.953C293.856 246.348 289.706 250.498 286.369 254.404C283.033 258.31 281.365 262.053 281.365 265.633H350.695V292.731H242.794Z" fill="white"/>
</svg>
