<svg width="1060" height="1059" viewBox="0 0 1060 1059" fill="none" xmlns="http://www.w3.org/2000/svg">
<g clip-path="url(#clip0_1439_156)">
<path d="M787.5 298H272.173C143.773 298 0 402.088 0 530.488C0 658.888 143.773 762.976 272.173 762.976H787.5C915.9 762.976 1059.67 658.888 1059.67 530.488C1059.67 402.088 915.901 298 787.5 298Z" fill="black"/>
<path d="M303.042 597.122C303.546 611.737 304.554 653.569 364.529 653.569C373.097 653.569 418.457 653.569 418.457 612.241C418.457 595.105 411.401 583.513 387.209 576.962L298.001 553.778C272.801 547.225 207.785 530.09 207.785 453.986C207.785 395.018 252.137 340.082 361 340.082C503.127 340.082 509.175 417.194 509.679 456.001H407.369C407.369 444.913 407.873 405.602 359.49 405.602C330.258 405.602 311.61 422.234 311.61 443.906C311.61 470.618 333.786 477.17 348.402 481.202L416.442 498.842C464.826 511.442 522.282 526.562 522.282 603.673C522.282 684.818 452.73 721.105 361.506 721.105C323.706 721.105 262.723 715.058 229.459 677.761C202.747 648.53 202.243 612.745 201.739 597.122H303.042Z" fill="#FFCB06"/>
<path d="M652.308 527.571C608.964 523.035 573.683 496.827 573.683 447.939C573.683 413.668 591.828 391.491 608.458 379.899C624.587 368.811 650.29 354.195 712.282 354.195C759.659 354.195 805.018 363.267 831.729 399.051C842.313 412.659 847.354 428.787 847.354 446.427C847.354 476.163 830.217 516.987 771.25 528.074V530.594C828.201 536.642 859.953 568.898 859.953 615.769C859.953 674.234 817.617 720.097 714.801 720.097C597.369 720.097 560.074 668.689 560.074 618.289C560.074 575.449 587.795 539.665 652.306 529.081V527.571H652.308ZM768.729 608.714C768.729 582.506 751.09 558.818 709.258 558.818C666.418 558.818 652.307 586.034 652.307 608.21C652.307 625.85 661.377 657.098 710.266 657.098C756.634 657.098 768.729 629.378 768.729 608.714ZM758.146 455.499C758.146 438.867 748.066 412.659 710.267 412.659C685.068 412.659 662.892 426.267 662.892 454.995C662.892 478.179 675.996 498.339 710.771 498.339C755.122 498.339 758.146 464.067 758.146 455.499Z" fill="#FFCB06"/>
</g>
<defs>
<clipPath id="clip0_1439_156">
<rect width="1059.67" height="1059" fill="white"/>
</clipPath>
</defs>
</svg>
