<svg width="1060" height="1059" viewBox="0 0 1060 1059" fill="none" xmlns="http://www.w3.org/2000/svg">
<g clip-path="url(#clip0_1439_198)">
<path d="M787.5 298H272.173C143.773 298 0 402.088 0 530.488C0 658.888 143.773 762.976 272.173 762.976H787.5C915.9 762.976 1059.67 658.888 1059.67 530.488C1059.67 402.088 915.901 298 787.5 298Z" fill="#16C0E9"/>
<path d="M326.752 596.153C327.256 610.769 328.264 652.601 388.239 652.601C396.807 652.601 442.167 652.601 442.167 611.273C442.167 594.137 435.111 582.545 410.919 575.993L321.711 552.809C296.511 546.257 231.495 529.121 231.495 453.017C231.495 394.049 275.847 339.113 384.71 339.113C526.837 339.113 532.885 416.225 533.389 455.032H431.079C431.079 443.944 431.583 404.633 383.2 404.633C353.968 404.633 335.32 421.265 335.32 442.937C335.32 469.649 357.496 476.201 372.112 480.233L440.152 497.873C488.536 510.473 545.992 525.593 545.992 602.706C545.992 683.85 476.44 720.138 385.216 720.138C347.416 720.138 286.433 714.089 253.169 676.794C226.457 647.562 225.953 611.778 225.449 596.153H326.752Z" fill="white"/>
<path d="M687.501 452.513C660.789 474.689 618.957 491.321 602.325 495.857V418.241C642.645 405.641 665.829 394.553 703.125 362.297H784.772V712.072H687.501V452.513Z" fill="white"/>
</g>
<defs>
<clipPath id="clip0_1439_198">
<rect width="1059.67" height="1059" fill="white"/>
</clipPath>
</defs>
</svg>
