<svg width="426" height="426" viewBox="0 0 426 426" fill="none" xmlns="http://www.w3.org/2000/svg">
<path d="M426 91H0V334.75H426V91Z" fill="#BC7A00"/>
<path d="M212.523 233.897C212.523 243.662 211.058 252.369 208.129 260.018C205.199 267.668 201.008 274.137 195.556 279.426C190.104 284.715 183.513 288.703 175.782 291.388C168.052 294.073 159.386 295.416 149.784 295.416C129.928 295.416 114.508 290.086 103.523 279.426C92.5369 268.766 87.0439 253.59 87.0439 233.897V129.902H126.592V231.456C126.592 236.339 126.918 240.896 127.569 245.127C128.22 249.358 129.44 253.02 131.23 256.112C133.021 259.205 135.38 261.646 138.31 263.436C141.239 265.226 145.064 266.121 149.784 266.121C154.178 266.121 157.84 265.226 160.769 263.436C163.698 261.646 166.099 259.205 167.971 256.112C169.842 253.02 171.144 249.358 171.877 245.127C172.609 240.896 172.975 236.339 172.975 231.456V129.902H212.523V233.897Z" fill="white"/>
<path d="M349.963 239.025C349.963 256.439 344.267 270.191 332.874 280.281C321.482 290.372 303.987 295.417 280.388 295.417C276.157 295.417 271.112 295.01 265.253 294.196C259.394 293.383 252.396 291.837 244.258 289.558L247.188 261.972C254.186 264.739 260.655 266.489 266.596 267.221C272.536 267.953 277.296 268.32 280.877 268.32C291.13 268.32 298.698 265.716 303.58 260.508C308.462 255.3 310.904 248.546 310.904 240.246C310.904 232.922 308.544 226.982 303.824 222.425C299.104 217.868 292.35 215.589 283.562 215.589C278.842 215.589 273.553 215.915 267.694 216.566C261.835 217.217 255.407 218.275 248.409 219.739L251.338 132.588H342.395V159.686H284.538L284.05 191.665C285.84 191.34 288.241 191.055 291.252 190.811C294.263 190.567 297.233 190.445 300.162 190.445C306.835 190.445 313.182 191.462 319.204 193.496C325.225 195.531 330.515 198.542 335.072 202.529C339.629 206.516 343.25 211.561 345.935 217.664C348.62 223.767 349.963 230.888 349.963 239.025Z" fill="white"/>
</svg>
