<svg width="1060" height="1059" viewBox="0 0 1060 1059" fill="none" xmlns="http://www.w3.org/2000/svg">
<g clip-path="url(#clip0_1439_174)">
<path d="M787.5 298H272.173C143.773 298 0 402.088 0 530.488C0 658.888 143.773 762.976 272.173 762.976H787.5C915.9 762.976 1059.67 658.888 1059.67 530.488C1059.67 402.088 915.901 298 787.5 298Z" fill="#FFCC00"/>
<path d="M303.042 597.124C303.546 611.74 304.554 653.572 364.529 653.572C373.097 653.572 418.457 653.572 418.457 612.244C418.457 595.107 411.401 583.515 387.209 576.964L298.001 553.78C272.801 547.228 207.785 530.092 207.785 453.988C207.785 395.02 252.137 340.084 361 340.084C503.127 340.084 509.175 417.196 509.679 456.003H407.37C407.37 444.915 407.874 405.604 359.491 405.604C330.259 405.604 311.611 422.236 311.611 443.908C311.611 470.62 333.787 477.172 348.403 481.204L416.443 498.844C464.827 511.444 522.283 526.564 522.283 603.676C522.283 684.821 452.731 721.108 361.507 721.108C323.707 721.108 262.724 715.06 229.46 677.764C202.748 648.532 202.244 612.748 201.74 597.124H303.042Z" fill="black"/>
<path d="M665.411 613.251C666.419 639.963 684.563 653.067 708.755 653.067C733.954 653.067 743.531 640.466 749.076 630.386C755.123 618.29 756.634 602.666 756.634 593.594C756.634 565.874 745.547 539.162 711.276 539.162C687.085 539.162 673.98 554.282 671.461 569.906L574.693 568.898L581.748 363.771H833.748V432.315H669.443L663.396 517.994C668.939 508.922 677.002 495.818 699.682 485.234C714.299 477.674 729.922 474.65 746.555 474.65C796.953 474.65 854.914 505.395 854.914 590.066C854.914 611.738 849.873 656.593 816.609 687.337C786.369 715.561 744.033 720.602 713.795 720.602C685.066 720.602 626.098 715.561 594.346 680.785C570.658 655.082 569.651 628.874 569.147 613.25H665.411V613.251Z" fill="black"/>
</g>
<defs>
<clipPath id="clip0_1439_174">
<rect width="1059.67" height="1059" fill="white"/>
</clipPath>
</defs>
</svg>
