<?xml version="1.0" encoding="UTF-8"?>
<svg xmlns="http://www.w3.org/2000/svg" width="179.7" height="89.7" viewBox="0 0 1797 897">
	<title>Berlin-Brandenburg transit icons - S-Bahn Linie S41</title>
	<rect fill="#ad5937" width="1797" height="897" rx="448.5"/>
	<path fill="#fff" d="M614,576q0-46-17.5-77t-43-51.5t-56-35t-56-28.5t-43-31t-17.5-44q0-37 24-57t63-20q28 0 54.5 6.5t57.5 20.5l3-93q-35-11-68.5-16.5t-64.5-5.5q-44 0-79.5 13t-60.5 36t-38.5 54.5t-13.5 68.5q0 48 17 78t43 49.5t55.5 32.5t55.5 27t43 32.5t17 49.5q0 36-25 57.5t-68 21.5q-63 0-123-32l-6 102q38 15 71.5 20.5t66.5 5.5q48 0 87-14.5t66-39.5t41.5-58.5t14.5-71.5zM1153,546h-69v-393h-124l-208 371v105h229v125h103v-125h69v-83zM837,546l148-280v280h-148zM1489,153h-96l-154 128l56 82l78-79v470h116v-601z"/>
</svg>