<svg width="80" height="80" viewBox="0 0 80 80" fill="none" xmlns="http://www.w3.org/2000/svg">
  <g clip-path="url(#clip0_1392_124)">
    <rect width="80" height="80" fill="#748477" />
    <path fill-rule="evenodd" clip-rule="evenodd"
      d="M40 56.75H34.0625L31.6875 61.5H28.125L26.9375 56.75H21L21.5938 17.5625C26.9375 15.1875 30.5 14 40 14C49.5 14 53.0625 15.1875 58.4062 17.5625L59 56.75H53.0625L51.875 61.5H48.3125L45.9375 56.75H40ZM40 47.25H25.75L31.6875 18.75H48.3125L54.25 47.25H40ZM26.9375 52C26.9375 52.4724 27.1252 52.9255 27.4592 53.2595C27.7933 53.5936 28.2463 53.7812 28.7188 53.7812C29.1912 53.7812 29.6442 53.5936 29.9783 53.2595C30.3123 52.9255 30.5 52.4724 30.5 52C30.5 51.5276 30.3123 51.0745 29.9783 50.7405C29.6442 50.4064 29.1912 50.2188 28.7188 50.2188C28.2463 50.2188 27.7933 50.4064 27.4592 50.7405C27.1252 51.0745 26.9375 51.5276 26.9375 52ZM31.6875 52C31.6875 52.4724 31.8752 52.9255 32.2092 53.2595C32.5433 53.5936 32.9963 53.7812 33.4688 53.7812C33.9412 53.7812 34.3942 53.5936 34.7283 53.2595C35.0623 52.9255 35.25 52.4724 35.25 52C35.25 51.5276 35.0623 51.0745 34.7283 50.7405C34.3942 50.4064 33.9412 50.2188 33.4688 50.2188C32.9963 50.2188 32.5433 50.4064 32.2092 50.7405C31.8752 51.0745 31.6875 51.5276 31.6875 52ZM53.0625 52C53.0625 51.5276 52.8748 51.0745 52.5408 50.7405C52.2067 50.4064 51.7537 50.2188 51.2812 50.2188C50.8088 50.2188 50.3558 50.4064 50.0217 50.7405C49.6877 51.0745 49.5 51.5276 49.5 52C49.5 52.4724 49.6877 52.9255 50.0217 53.2595C50.3558 53.5936 50.8088 53.7812 51.2812 53.7812C51.7537 53.7812 52.2067 53.5936 52.5408 53.2595C52.8748 52.9255 53.0625 52.4724 53.0625 52ZM48.3125 52C48.3125 51.5276 48.1248 51.0745 47.7908 50.7405C47.4567 50.4064 47.0037 50.2188 46.5312 50.2188C46.0588 50.2188 45.6058 50.4064 45.2717 50.7405C44.9377 51.0745 44.75 51.5276 44.75 52C44.75 52.4724 44.9377 52.9255 45.2717 53.2595C45.6058 53.5936 46.0588 53.7812 46.5312 53.7812C47.0037 53.7812 47.4567 53.5936 47.7908 53.2595C48.1248 52.9255 48.3125 52.4724 48.3125 52ZM40 59.125H34.6562V65.0625H45.3438V59.125H40Z"
      fill="white" />
  </g>

</svg>