<svg width="80" height="80" viewBox="0 0 80 80" fill="none" xmlns="http://www.w3.org/2000/svg">
  <g clip-path="url(#clip0_1392_120)">
    <rect width="80" height="80" fill="#DF2518" />
    <path fill-rule="evenodd" clip-rule="evenodd"
      d="M40.5001 58.2439H30.1586L28.8659 66H19.8172L24.9879 58.2439C18.5245 58.2439 17.2318 56.9512 16.5854 47.9024C16.5854 41.439 19.8172 27.2195 22.4025 20.7561C26.2806 14.2927 30.1586 13 40.5001 13C50.8415 13 54.7196 14.2927 58.5976 20.7561C61.183 27.2195 64.4147 41.439 64.4147 47.9024C63.7684 56.9512 62.4757 58.2439 56.0123 58.2439L61.183 66H52.1342L50.8415 58.2439H40.5001ZM40.5001 46.6098C14.6464 46.6098 22.4025 46.6098 22.4025 33.6829C24.9879 27.2195 21.1098 16.878 40.5001 16.878C59.8903 16.878 56.0123 27.2195 58.5976 33.6829C58.5976 46.6098 66.3537 46.6098 40.5001 46.6098ZM26.2806 51.7805C26.2806 52.4662 26.553 53.1238 27.0378 53.6086C27.5227 54.0935 28.1803 54.3659 28.8659 54.3659C29.5516 54.3659 30.2092 54.0935 30.6941 53.6086C31.1789 53.1238 31.4513 52.4662 31.4513 51.7805C31.4513 51.0948 31.1789 50.4372 30.6941 49.9524C30.2092 49.4675 29.5516 49.1951 28.8659 49.1951C28.1803 49.1951 27.5227 49.4675 27.0378 49.9524C26.553 50.4372 26.2806 51.0948 26.2806 51.7805ZM54.7196 51.7805C54.7196 51.0948 54.4472 50.4372 53.9624 49.9524C53.4775 49.4675 52.8199 49.1951 52.1342 49.1951C51.4486 49.1951 50.791 49.4675 50.3061 49.9524C49.8213 50.4372 49.5489 51.0948 49.5489 51.7805C49.5489 52.4662 49.8213 53.1238 50.3061 53.6086C50.791 54.0935 51.4486 54.3659 52.1342 54.3659C52.8199 54.3659 53.4775 54.0935 53.9624 53.6086C54.4472 53.1238 54.7196 52.4662 54.7196 51.7805Z"
      fill="white" />
  </g>
</svg>