<svg width="100%" height="100%" viewBox="0 0 513 513" version="1.1"
    xmlns="http://www.w3.org/2000/svg" xmlns:xlink="http://www.w3.org/1999/xlink"
    xml:space="preserve" xmlns:serif="http://www.serif.com/"
    style="fill-rule:evenodd;clip-rule:evenodd;stroke-linejoin:round;stroke-miterlimit:2;">
    <g transform="matrix(1,0,0,1,-1706,-1943)">
        <g id="Métro-2" serif:id="Métro 2" transform="matrix(1,0,0,1,1706.16,1943.3)">
            <rect x="0" y="0" width="512" height="512" style="fill:none;"/>
            <clipPath id="_clip1">
                <rect x="0" y="0" width="512" height="512"/>
            </clipPath>
            <g clip-path="url(#_clip1)">
                <g transform="matrix(0,-21.6555,-21.6555,0,256,-2.72848e-12)">
                    <path d="M-11.822,-11.822C-18.351,-11.822 -23.644,-6.529 -23.644,0.001C-23.644,6.53 -18.351,11.822 -11.822,11.822C-5.293,11.822 0.001,6.53 0.001,0.001C0.001,-6.529 -5.293,-11.822 -11.822,-11.822" style="fill:rgb(239,129,34);fill-rule:nonzero;"/>
                </g>
                <g transform="matrix(21.6555,0,0,21.6555,184.853,121.842)">
                    <path d="M0,11.989L0,10.16C2.557,7.518 4.386,5.097 4.386,3.572C4.386,2.523 3.811,1.863 2.727,1.863C1.863,1.863 1.033,2.286 0.407,2.777L0.22,0.711C1.152,0.271 2.219,0 3.404,0C5.369,0 6.723,1.202 6.723,3.166C6.723,5.334 4.42,8.281 2.49,10.211L6.859,10.211L6.859,11.989L0,11.989Z" style="fill:white;fill-rule:nonzero;"/>
                </g>
            </g>
        </g>
    </g>
</svg>