<?xml version="1.0" encoding="utf-8"?>
<!-- Generator: Adobe Illustrator 23.0.1, SVG Export Plug-In . SVG Version: 6.00 Build 0)  -->
<svg version="1.1"
	 id="svg21844" inkscape:output_extension="org.inkscape.output.svg.inkscape" inkscape:version="0.46" sodipodi:docname="L3.svg" sodipodi:version="0.32" xmlns:cc="http://creativecommons.org/ns#" xmlns:dc="http://purl.org/dc/elements/1.1/" xmlns:inkscape="http://www.inkscape.org/namespaces/inkscape" xmlns:rdf="http://www.w3.org/1999/02/22-rdf-syntax-ns#" xmlns:sodipodi="http://sodipodi.sourceforge.net/DTD/sodipodi-0.dtd" xmlns:svg="http://www.w3.org/2000/svg"
	 xmlns="http://www.w3.org/2000/svg" xmlns:xlink="http://www.w3.org/1999/xlink" x="0px" y="0px" width="63.99px" height="64px"
	 viewBox="0 0 63.99 64" enable-background="new 0 0 63.99 64" xml:space="preserve">
<g>
	<rect fill-rule="evenodd" clip-rule="evenodd" fill="#3AA83E" width="63.99" height="64"/>
	<polygon fill="#FFFFFF" points="15.593,15.26 15.593,42.634 31.964,42.634 31.964,48.847 8.208,48.847 8.208,15.26 	"/>
	<path fill="#FFFFFF" d="M45.884,29.232c0.81-0.067,1.582-0.241,2.281-0.55c0.704-0.294,1.274-0.724,1.736-1.283
		c0.449-0.569,0.69-1.327,0.69-2.258c0-1.408-0.473-2.494-1.418-3.251c-0.94-0.757-2.016-1.129-3.246-1.129
		c-1.688,0-2.971,0.56-3.83,1.669c-0.864,1.119-1.283,2.523-1.249,4.211h-6.343c0.058-1.688,0.362-3.236,0.911-4.63
		c0.56-1.394,1.317-2.6,2.306-3.599c0.998-1.008,2.171-1.775,3.555-2.325c1.38-0.55,2.918-0.825,4.607-0.825
		c1.317,0,2.634,0.198,3.95,0.584c1.317,0.395,2.499,0.989,3.555,1.765c1.042,0.791,1.896,1.746,2.557,2.866
		c0.67,1.128,0.998,2.436,0.998,3.917c0,1.592-0.395,3.005-1.163,4.226c-0.772,1.225-1.92,2.05-3.458,2.489v0.097
		c1.823,0.41,3.251,1.288,4.293,2.634c1.018,1.351,1.544,2.966,1.544,4.843c0,1.732-0.338,3.266-1.018,4.606
		c-0.661,1.351-1.568,2.48-2.701,3.391c-1.119,0.912-2.422,1.602-3.893,2.06c-1.481,0.473-3.02,0.714-4.621,0.714
		c-1.843,0-3.531-0.275-5.046-0.801c-1.539-0.526-2.822-1.307-3.888-2.325c-1.061-1.022-1.886-2.262-2.465-3.743
		c-0.594-1.466-0.859-3.159-0.825-5.079h6.353c0.034,0.878,0.164,1.722,0.42,2.513c0.241,0.801,0.613,1.491,1.076,2.074
		c0.468,0.579,1.061,1.042,1.765,1.384c0.714,0.347,1.544,0.526,2.523,0.526c1.505,0,2.764-0.463,3.806-1.394
		c1.032-0.921,1.548-2.185,1.548-3.786c0-1.249-0.241-2.205-0.723-2.865c-0.497-0.656-1.11-1.138-1.867-1.438
		c-0.748-0.294-1.568-0.468-2.47-0.511c-0.887-0.048-1.741-0.077-2.556-0.077v-4.699C44.292,29.3,45.073,29.3,45.884,29.232"/>
</g>
</svg>
