<?xml version="1.0" encoding="utf-8"?>
<!-- Generator: Adobe Illustrator 23.0.1, SVG Export Plug-In . SVG Version: 6.00 Build 0)  -->
<svg version="1.1"
	 id="svg21844" inkscape:output_extension="org.inkscape.output.svg.inkscape" inkscape:version="0.46" sodipodi:docname="L11.svg" sodipodi:version="0.32" xmlns:cc="http://creativecommons.org/ns#" xmlns:dc="http://purl.org/dc/elements/1.1/" xmlns:inkscape="http://www.inkscape.org/namespaces/inkscape" xmlns:rdf="http://www.w3.org/1999/02/22-rdf-syntax-ns#" xmlns:sodipodi="http://sodipodi.sourceforge.net/DTD/sodipodi-0.dtd" xmlns:svg="http://www.w3.org/2000/svg"
	 xmlns="http://www.w3.org/2000/svg" xmlns:xlink="http://www.w3.org/1999/xlink" x="0px" y="0px" width="64px" height="64px"
	 viewBox="0 0 64 64" enable-background="new 0 0 64 64" xml:space="preserve">
<g>
	<rect fill-rule="evenodd" clip-rule="evenodd" fill="#B4CD56" width="64" height="64"/>
	<polygon fill="#1D1D1B" points="12.333,15.274 12.333,42.648 28.705,42.648 28.705,48.861 4.948,48.861 4.948,15.274 	"/>
	<path fill="#1D1D1B" d="M34.299,48.854V27.504h-8.282v-5.041c1.163,0.034,2.282-0.053,3.377-0.251
		c1.066-0.208,2.04-0.569,2.909-1.085c0.854-0.516,1.592-1.196,2.195-2.04c0.593-0.859,0.975-1.91,1.163-3.16h5.311v32.926H34.299z"
		/>
	<path fill="#1D1D1B" d="M53.393,48.854V27.504h-8.273v-5.041c1.162,0.034,2.282-0.053,3.367-0.251
		c1.076-0.208,2.04-0.569,2.909-1.085c0.853-0.516,1.592-1.196,2.195-2.04c0.593-0.859,0.974-1.91,1.163-3.16h5.311v32.926H53.393z"
		/>
</g>
</svg>
