<?xml version="1.0" encoding="utf-8"?>
<!-- Generator: Adobe Illustrator 23.0.1, SVG Export Plug-In . SVG Version: 6.00 Build 0)  -->
<svg version="1.1"
	 id="svg21844" inkscape:output_extension="org.inkscape.output.svg.inkscape" inkscape:version="0.46" sodipodi:docname="L5.svg" sodipodi:version="0.32" xmlns:cc="http://creativecommons.org/ns#" xmlns:dc="http://purl.org/dc/elements/1.1/" xmlns:inkscape="http://www.inkscape.org/namespaces/inkscape" xmlns:rdf="http://www.w3.org/1999/02/22-rdf-syntax-ns#" xmlns:sodipodi="http://sodipodi.sourceforge.net/DTD/sodipodi-0.dtd" xmlns:svg="http://www.w3.org/2000/svg"
	 xmlns="http://www.w3.org/2000/svg" xmlns:xlink="http://www.w3.org/1999/xlink" x="0px" y="0px" width="63.99px" height="64px"
	 viewBox="0 0 63.99 64" enable-background="new 0 0 63.99 64" xml:space="preserve">
<g>
	<rect fill-rule="evenodd" clip-rule="evenodd" fill="#0177BC" width="63.99" height="64"/>
	<polygon fill="#FFFFFF" points="15.585,15.252 15.585,42.626 31.956,42.626 31.956,48.839 8.209,48.839 8.209,15.252 	"/>
	<path fill="#FFFFFF" d="M42.78,21.413l-1.317,7.482l0.096,0.092c0.912-0.911,1.877-1.558,2.909-1.944
		c1.032-0.396,2.219-0.603,3.536-0.603c1.621,0,3.073,0.309,4.322,0.897c1.249,0.603,2.316,1.394,3.184,2.407
		c0.854,1.008,1.51,2.18,1.973,3.555c0.449,1.36,0.68,2.807,0.68,4.341c0,1.693-0.338,3.271-0.989,4.732
		c-0.666,1.457-1.544,2.721-2.663,3.782c-1.109,1.066-2.407,1.891-3.873,2.47c-1.481,0.584-3.053,0.859-4.708,0.825
		c-1.592,0-3.126-0.207-4.587-0.637c-1.461-0.43-2.754-1.076-3.873-1.954c-1.143-0.878-2.041-1.963-2.711-3.27
		c-0.68-1.293-1.032-2.808-1.061-4.544h6.681c0.164,1.515,0.724,2.711,1.698,3.613c0.97,0.887,2.209,1.336,3.71,1.336
		c0.878,0,1.678-0.174,2.373-0.545c0.723-0.352,1.302-0.825,1.785-1.409c0.497-0.579,0.868-1.249,1.143-2.026
		c0.26-0.772,0.395-1.558,0.395-2.373c0-0.844-0.135-1.645-0.376-2.392c-0.26-0.757-0.632-1.413-1.138-1.983
		c-0.507-0.56-1.085-0.999-1.78-1.317c-0.68-0.309-1.491-0.473-2.402-0.473c-1.196,0-2.161,0.217-2.909,0.646
		c-0.757,0.42-1.457,1.085-2.127,1.997h-6.01l3.246-18.204h18.388v5.499H42.78z"/>
</g>
</svg>
