<?xml version="1.0" encoding="utf-8"?>
<!-- Generator: Adobe Illustrator 23.0.1, SVG Export Plug-In . SVG Version: 6.00 Build 0)  -->
<svg version="1.1"
	 id="svg21844" inkscape:output_extension="org.inkscape.output.svg.inkscape" inkscape:version="1.0beta1 (32d4812, 2019-09-19)" sodipodi:docname="L2_barcelona.svg" sodipodi:version="0.32" xmlns:cc="http://creativecommons.org/ns#" xmlns:dc="http://purl.org/dc/elements/1.1/" xmlns:inkscape="http://www.inkscape.org/namespaces/inkscape" xmlns:rdf="http://www.w3.org/1999/02/22-rdf-syntax-ns#" xmlns:sodipodi="http://sodipodi.sourceforge.net/DTD/sodipodi-0.dtd" xmlns:svg="http://www.w3.org/2000/svg"
	 xmlns="http://www.w3.org/2000/svg" xmlns:xlink="http://www.w3.org/1999/xlink" x="0px" y="0px" width="64.024px" height="64px"
	 viewBox="0 0 64.024 64" enable-background="new 0 0 64.024 64" xml:space="preserve">
<g>
	<rect fill-rule="evenodd" clip-rule="evenodd" fill="#993C8C" width="64.024" height="64"/>
	<polygon fill="#FFFFFF" points="14.757,15.256 14.757,42.64 31.135,42.64 31.135,48.855 7.369,48.855 7.369,15.256 	"/>
	<path fill="#FFFFFF" d="M34.422,23.326c0.507-1.612,1.25-3.021,2.263-4.237c0.999-1.206,2.268-2.152,3.783-2.823
		c1.525-0.68,3.272-1.009,5.25-1.009c1.501,0,2.939,0.232,4.3,0.705c1.361,0.473,2.572,1.153,3.6,2.031
		c1.042,0.878,1.858,1.94,2.471,3.238c0.618,1.293,0.922,2.731,0.922,4.333c0,1.645-0.261,3.084-0.801,4.28
		c-0.526,1.187-1.24,2.249-2.118,3.175c-0.878,0.931-1.868,1.766-2.987,2.509c-1.119,0.758-2.239,1.505-3.368,2.229
		c-1.129,0.748-2.229,1.539-3.281,2.384c-1.076,0.844-2.022,1.843-2.833,2.972h15.577v5.733h-24.18c0-1.92,0.26-3.58,0.82-4.985
		c0.55-1.419,1.289-2.678,2.229-3.788c0.946-1.119,2.041-2.138,3.325-3.083c1.264-0.946,2.601-1.901,4.02-2.876
		c0.724-0.492,1.491-0.999,2.306-1.515c0.811-0.526,1.559-1.095,2.239-1.723c0.666-0.627,1.226-1.341,1.689-2.128
		c0.449-0.782,0.68-1.67,0.68-2.669c0-1.612-0.463-2.852-1.385-3.745C48.011,21.439,46.823,21,45.386,21
		c-0.965,0-1.8,0.232-2.466,0.68c-0.671,0.449-1.221,1.042-1.626,1.79c-0.405,0.733-0.704,1.544-0.869,2.437
		c-0.174,0.898-0.261,1.776-0.261,2.664h-6.403C33.708,26.694,33.93,24.928,34.422,23.326"/>
</g>
</svg>
