<?xml version="1.0" encoding="utf-8"?>
<!-- Generator: Adobe Illustrator 23.0.1, SVG Export Plug-In . SVG Version: 6.00 Build 0)  -->
<svg version="1.1"
	 id="svg21844" inkscape:output_extension="org.inkscape.output.svg.inkscape" inkscape:version="0.47 r22583" sodipodi:docname="L8_barcelona.svg" sodipodi:version="0.32" xmlns:cc="http://creativecommons.org/ns#" xmlns:dc="http://purl.org/dc/elements/1.1/" xmlns:inkscape="http://www.inkscape.org/namespaces/inkscape" xmlns:rdf="http://www.w3.org/1999/02/22-rdf-syntax-ns#" xmlns:sodipodi="http://sodipodi.sourceforge.net/DTD/sodipodi-0.dtd" xmlns:svg="http://www.w3.org/2000/svg"
	 xmlns="http://www.w3.org/2000/svg" xmlns:xlink="http://www.w3.org/1999/xlink" x="0px" y="0px" width="64.01px" height="64px"
	 viewBox="0 0 64.01 64" enable-background="new 0 0 64.01 64" xml:space="preserve">
<g>
	<rect fill-rule="evenodd" clip-rule="evenodd" fill="#E579AE" width="64.01" height="64"/>
	<polygon fill="#FFFFFF" points="15.609,15.256 15.609,42.635 31.982,42.635 31.982,48.848 8.223,48.848 8.223,15.256 	"/>
	<path fill="#FFFFFF" d="M35.875,20.335c0.656-1.129,1.515-2.075,2.566-2.818c1.057-0.748,2.239-1.317,3.556-1.693
		c1.317-0.372,2.644-0.569,3.995-0.569c2.041,0,3.777,0.309,5.172,0.945c1.414,0.622,2.557,1.394,3.421,2.282
		c0.859,0.888,1.481,1.853,1.857,2.866c0.371,1.018,0.56,1.93,0.56,2.755c0,1.621-0.396,3.059-1.197,4.279
		c-0.801,1.225-1.997,2.103-3.599,2.634v0.087c1.973,0.439,3.498,1.37,4.564,2.808c1.066,1.428,1.602,3.174,1.602,5.244
		c0,1.756-0.352,3.285-1.066,4.569c-0.699,1.283-1.635,2.345-2.798,3.194c-1.163,0.844-2.48,1.481-3.951,1.906
		c-1.467,0.42-2.982,0.637-4.52,0.637c-1.592,0-3.136-0.198-4.631-0.593c-1.481-0.391-2.818-1.008-3.995-1.853
		c-1.172-0.854-2.118-1.91-2.818-3.203c-0.714-1.298-1.066-2.822-1.066-4.612c0-2.094,0.55-3.85,1.626-5.263
		c1.086-1.418,2.61-2.359,4.588-2.832v-0.087c-1.602-0.439-2.798-1.274-3.623-2.494c-0.81-1.216-1.221-2.644-1.221-4.279
		C34.896,22.772,35.214,21.469,35.875,20.335 M40.68,41.167c0.309,0.699,0.724,1.293,1.24,1.766
		c0.526,0.482,1.143,0.868,1.867,1.139c0.724,0.256,1.471,0.396,2.248,0.396c0.825,0,1.573-0.14,2.238-0.396
		c0.671-0.27,1.274-0.656,1.79-1.139c0.516-0.473,0.912-1.066,1.197-1.766c0.285-0.68,0.429-1.438,0.429-2.253
		c0-0.777-0.154-1.491-0.453-2.137c-0.294-0.646-0.699-1.196-1.225-1.669c-0.507-0.473-1.11-0.835-1.78-1.076
		c-0.68-0.251-1.404-0.381-2.195-0.381c-1.621,0-3.006,0.449-4.134,1.336c-1.134,0.902-1.693,2.185-1.693,3.884
		C40.208,39.729,40.362,40.487,40.68,41.167 M42.47,28.074c0.999,0.733,2.171,1.11,3.522,1.11c1.418,0,2.591-0.376,3.536-1.11
		c0.941-0.724,1.404-1.809,1.404-3.227c0-0.439-0.058-0.912-0.188-1.423c-0.121-0.516-0.362-1.023-0.733-1.486
		c-0.352-0.468-0.859-0.864-1.505-1.172c-0.637-0.318-1.471-0.473-2.513-0.473c-0.656,0-1.293,0.101-1.91,0.299
		c-0.603,0.207-1.148,0.502-1.611,0.878c-0.473,0.381-0.844,0.854-1.11,1.404c-0.261,0.569-0.405,1.23-0.405,1.973
		C40.955,26.264,41.462,27.35,42.47,28.074"/>
</g>
</svg>
