<?xml version="1.0" encoding="utf-8"?>
<!-- Generator: Adobe Illustrator 23.0.1, SVG Export Plug-In . SVG Version: 6.00 Build 0)  -->
<svg version="1.1"
	id="svg21844" inkscape:output_extension="org.inkscape.output.svg.inkscape" inkscape:version="0.46"
	sodipodi:docname="L9.svg" sodipodi:version="0.32" xmlns:cc="http://creativecommons.org/ns#"
	xmlns:dc="http://purl.org/dc/elements/1.1/"
	xmlns:inkscape="http://www.inkscape.org/namespaces/inkscape"
	xmlns:rdf="http://www.w3.org/1999/02/22-rdf-syntax-ns#"
	xmlns:sodipodi="http://sodipodi.sourceforge.net/DTD/sodipodi-0.dtd"
	xmlns:svg="http://www.w3.org/2000/svg"
	xmlns="http://www.w3.org/2000/svg" xmlns:xlink="http://www.w3.org/1999/xlink" x="0px" y="0px"
	width="64.014px" height="64px"
	viewBox="0 0 64.014 64" enable-background="new 0 0 64.014 64" xml:space="preserve">
<g>
	<rect fill="#F88D00" width="64.014" height="64"/>
	<polygon fill="#FFFFFF" points="7.162,49.545 31.989,49.545 31.989,43.06 14.868,43.06 14.868,14.455 7.162,14.455 	"/>
	<path fill="#FFFFFF" d="M46.186,32.987c-3.6,0-5.269-3.247-5.269-6.485c0-3.098,1.911-6.292,5.269-6.292
		c3.479,0,5.53,3.194,5.53,6.389C51.716,29.99,49.897,32.987,46.186,32.987 M34.528,40.703c0.777,6.046,5.226,9.54,11.161,9.54
		c9.771,0,13.501-9.593,13.501-17.989c0-8.695-2.799-17.796-13.217-17.796c-7.166,0-12.039,5.554-12.039,12.58
		c0,2.702,0.844,5.554,2.645,7.672c1.969,2.152,4.975,3.532,7.928,3.532c3.334,0,5.839-1.129,7.759-3.827l0.097,0.096
		c-0.198,3.831-1.525,10.462-6.587,10.462c-2.403,0-4.169-1.964-4.618-4.271H34.528z"/>
</g>
</svg>