<?xml version="1.0" encoding="utf-8"?>
<!-- Generator: Adobe Illustrator 23.0.1, SVG Export Plug-In . SVG Version: 6.00 Build 0)  -->
<svg version="1.1"
	 id="svg21844" inkscape:output_extension="org.inkscape.output.svg.inkscape" inkscape:version="0.46" sodipodi:docname="T5.svg" sodipodi:version="0.32" xmlns:cc="http://creativecommons.org/ns#" xmlns:dc="http://purl.org/dc/elements/1.1/" xmlns:inkscape="http://www.inkscape.org/namespaces/inkscape" xmlns:rdf="http://www.w3.org/1999/02/22-rdf-syntax-ns#" xmlns:sodipodi="http://sodipodi.sourceforge.net/DTD/sodipodi-0.dtd" xmlns:svg="http://www.w3.org/2000/svg"
	 xmlns="http://www.w3.org/2000/svg" xmlns:xlink="http://www.w3.org/1999/xlink" x="0px" y="0px" width="64px" height="64px"
	 viewBox="0 0 64 64" enable-background="new 0 0 64 64" xml:space="preserve">
<defs>
	
	
		<inkscape:perspective  id="perspective21852" inkscape:persp3d-origin="32 : 21.333333 : 1" inkscape:vp_x="0 : 32 : 1" inkscape:vp_y="0 : 1000 : 0" inkscape:vp_z="64 : 32 : 1" sodipodi:type="inkscape:persp3d">
		</inkscape:perspective>
</defs>
<sodipodi:namedview  bordercolor="#666666" borderopacity="1.0" id="base" inkscape:current-layer="layer1" inkscape:cx="32" inkscape:cy="32.000001" inkscape:document-units="px" inkscape:grid-bbox="true" inkscape:guide-bbox="true" inkscape:pageopacity="0.0" inkscape:pageshadow="2" inkscape:window-height="752" inkscape:window-width="1280" inkscape:window-x="300" inkscape:window-y="300" inkscape:zoom="8.703125" pagecolor="#ffffff" showgrid="true" showguides="true">
	</sodipodi:namedview>
<g>
	<rect fill-rule="evenodd" clip-rule="evenodd" fill="#008D78" width="64" height="64"/>
	<polygon fill="#FFFFFF" points="5.2,21.5 5.2,15.3 32.7,15.3 32.7,21.5 22.6,21.5 22.6,48.8 15.2,48.8 15.2,21.5 	"/>
	<path fill="#FFFFFF" d="M43.2,21.4l-1.3,7.5L42,29c0.9-0.9,1.9-1.6,2.9-1.9c1-0.4,2.2-0.6,3.5-0.6c1.6,0,3.1,0.3,4.3,0.9
		c1.3,0.6,2.3,1.4,3.2,2.4c0.9,1,1.5,2.2,2,3.5c0.5,1.4,0.7,2.8,0.7,4.4c0,1.7-0.3,3.3-1,4.7c-0.7,1.5-1.6,2.7-2.7,3.8
		c-1.1,1.1-2.4,1.9-3.9,2.5c-1.5,0.6-3.1,0.9-4.7,0.8c-1.6,0-3.1-0.2-4.6-0.6c-1.5-0.4-2.8-1.1-3.9-2c-1.1-0.9-2-2-2.7-3.3
		c-0.7-1.3-1-2.8-1.1-4.5h6.7c0.2,1.5,0.7,2.7,1.7,3.6c1,0.9,2.2,1.3,3.7,1.3c0.9,0,1.7-0.2,2.4-0.5c0.7-0.4,1.3-0.8,1.8-1.4
		c0.5-0.6,0.9-1.3,1.1-2c0.3-0.8,0.4-1.6,0.4-2.4c0-0.9-0.1-1.6-0.4-2.4c-0.3-0.8-0.6-1.4-1.1-2c-0.5-0.6-1.1-1-1.8-1.3
		c-0.7-0.3-1.5-0.5-2.4-0.5c-1.2,0-2.2,0.2-2.9,0.6c-0.8,0.4-1.5,1.1-2.1,2h-6l3.2-18.2h18.4v5.5H43.2z"/>
</g>
</svg>
