<?xml version="1.0" encoding="utf-8"?>
<!-- Generator: Adobe Illustrator 23.0.1, SVG Export Plug-In . SVG Version: 6.00 Build 0)  -->
<svg version="1.1"
	 id="svg21844" inkscape:output_extension="org.inkscape.output.svg.inkscape" inkscape:version="0.46" sodipodi:docname="T6.svg" sodipodi:version="0.32" xmlns:cc="http://creativecommons.org/ns#" xmlns:dc="http://purl.org/dc/elements/1.1/" xmlns:inkscape="http://www.inkscape.org/namespaces/inkscape" xmlns:rdf="http://www.w3.org/1999/02/22-rdf-syntax-ns#" xmlns:sodipodi="http://sodipodi.sourceforge.net/DTD/sodipodi-0.dtd" xmlns:svg="http://www.w3.org/2000/svg"
	 xmlns="http://www.w3.org/2000/svg" xmlns:xlink="http://www.w3.org/1999/xlink" x="0px" y="0px" width="64px" height="64px"
	 viewBox="0 0 64 64" enable-background="new 0 0 64 64" xml:space="preserve">
<defs>
	
	
		<inkscape:perspective  id="perspective21852" inkscape:persp3d-origin="32 : 21.333333 : 1" inkscape:vp_x="0 : 32 : 1" inkscape:vp_y="0 : 1000 : 0" inkscape:vp_z="64 : 32 : 1" sodipodi:type="inkscape:persp3d">
		</inkscape:perspective>
</defs>
<sodipodi:namedview  bordercolor="#666666" borderopacity="1.0" id="base" inkscape:current-layer="layer1" inkscape:cx="32" inkscape:cy="32.000001" inkscape:document-units="px" inkscape:grid-bbox="true" inkscape:guide-bbox="true" inkscape:pageopacity="0.0" inkscape:pageshadow="2" inkscape:window-height="752" inkscape:window-width="1280" inkscape:window-x="0" inkscape:window-y="0" inkscape:zoom="8.703125" pagecolor="#ffffff" showgrid="true" showguides="true">
	</sodipodi:namedview>
<g>
	<rect fill-rule="evenodd" clip-rule="evenodd" fill="#008D78" width="64" height="64"/>
	<polygon fill="#FFFFFF" points="5.2,21.5 5.2,15.3 32.7,15.3 32.7,21.5 22.6,21.5 22.6,48.8 15.2,48.8 15.2,21.5 	"/>
	<path fill="#FFFFFF" d="M50,21.5c-0.8-0.8-1.8-1.2-2.9-1.2c-1.2,0-2.2,0.3-3,1.1c-0.8,0.7-1.4,1.6-1.9,2.6c-0.5,1-0.8,2.1-1,3.3
		c-0.2,1.2-0.3,2.2-0.4,3.1l0.1,0.1c0.9-1.3,2-2.3,3.2-2.8c1.2-0.6,2.6-0.8,4.2-0.8c1.4,0,2.8,0.3,4.1,0.9c1.3,0.6,2.5,1.4,3.4,2.5
		c0.9,1,1.5,2.1,1.9,3.4c0.4,1.3,0.6,2.6,0.6,3.9c0,1.7-0.3,3.3-0.8,4.7c-0.5,1.5-1.3,2.7-2.4,3.8c-1,1.1-2.2,1.9-3.6,2.5
		c-1.4,0.6-3,0.9-4.7,0.9c-2.5,0-4.5-0.5-6.2-1.5c-1.6-1-2.9-2.3-3.9-3.9c-1-1.6-1.6-3.4-2-5.4c-0.4-2-0.6-4.1-0.6-6.2
		c0-2,0.2-4.1,0.7-6.1c0.5-2,1.2-3.9,2.3-5.5c1-1.6,2.4-3,4-4c1.6-1,3.6-1.6,6-1.6c1.4,0,2.7,0.2,4,0.6c1.2,0.4,2.3,1,3.2,1.8
		c0.9,0.8,1.7,1.7,2.3,2.8c0.6,1.1,1,2.4,1.2,3.9h-6.4C51.3,23.3,50.8,22.3,50,21.5 M44.4,32.3c-0.7,0.3-1.2,0.8-1.7,1.3
		c-0.4,0.6-0.8,1.2-1,2c-0.2,0.7-0.3,1.5-0.3,2.3c0,0.7,0.1,1.5,0.4,2.2c0.2,0.7,0.6,1.4,1,2c0.5,0.6,1,1,1.7,1.4
		c0.6,0.4,1.4,0.5,2.3,0.5c0.8,0,1.5-0.2,2.1-0.5c0.6-0.3,1.1-0.8,1.6-1.4c0.4-0.6,0.8-1.2,1-1.9c0.2-0.7,0.3-1.5,0.3-2.2
		c0-0.8-0.1-1.5-0.3-2.3c-0.2-0.7-0.5-1.4-0.9-2c-0.4-0.6-0.9-1.1-1.6-1.4c-0.7-0.4-1.4-0.5-2.2-0.5C45.9,31.8,45.1,31.9,44.4,32.3"
		/>
</g>
</svg>
