<?xml version="1.0" encoding="utf-8"?>
<!-- Generator: Adobe Illustrator 23.0.1, SVG Export Plug-In . SVG Version: 6.00 Build 0)  -->
<svg version="1.1"
	 id="svg21844" inkscape:output_extension="org.inkscape.output.svg.inkscape" inkscape:version="0.46" sodipodi:docname="T2.svg" sodipodi:version="0.32" xmlns:cc="http://creativecommons.org/ns#" xmlns:dc="http://purl.org/dc/elements/1.1/" xmlns:inkscape="http://www.inkscape.org/namespaces/inkscape" xmlns:rdf="http://www.w3.org/1999/02/22-rdf-syntax-ns#" xmlns:sodipodi="http://sodipodi.sourceforge.net/DTD/sodipodi-0.dtd" xmlns:svg="http://www.w3.org/2000/svg"
	 xmlns="http://www.w3.org/2000/svg" xmlns:xlink="http://www.w3.org/1999/xlink" x="0px" y="0px" width="64px" height="64px"
	 viewBox="0 0 64 64" enable-background="new 0 0 64 64" xml:space="preserve">
<defs>
	
	
		<inkscape:perspective  id="perspective21852" inkscape:persp3d-origin="32 : 21.333333 : 1" inkscape:vp_x="0 : 32 : 1" inkscape:vp_y="0 : 1000 : 0" inkscape:vp_z="64 : 32 : 1" sodipodi:type="inkscape:persp3d">
		</inkscape:perspective>
</defs>
<sodipodi:namedview  bordercolor="#666666" borderopacity="1.0" id="base" inkscape:current-layer="layer1" inkscape:cx="32" inkscape:cy="32.000001" inkscape:document-units="px" inkscape:grid-bbox="true" inkscape:guide-bbox="true" inkscape:pageopacity="0.0" inkscape:pageshadow="2" inkscape:window-height="752" inkscape:window-width="1280" inkscape:window-x="20" inkscape:window-y="20" inkscape:zoom="8.703125" pagecolor="#ffffff" showgrid="true" showguides="true">
	</sodipodi:namedview>
<g>
	<rect fill-rule="evenodd" clip-rule="evenodd" fill="#008D78" width="64" height="64"/>
	<polygon fill="#FFFFFF" points="4,21.5 4,15.3 31.6,15.3 31.6,21.5 21.5,21.5 21.5,48.8 14.1,48.8 14.1,21.5 	"/>
	<path fill="#FFFFFF" d="M34.6,23.3c0.5-1.6,1.3-3,2.3-4.2c1-1.2,2.3-2.2,3.8-2.8c1.5-0.7,3.3-1,5.2-1c1.5,0,2.9,0.2,4.3,0.7
		c1.4,0.5,2.6,1.1,3.6,2c1,0.9,1.9,2,2.5,3.2c0.6,1.3,0.9,2.7,0.9,4.3c0,1.7-0.3,3.1-0.8,4.3c-0.5,1.2-1.2,2.2-2.1,3.2
		c-0.9,0.9-1.9,1.8-3,2.5c-1.1,0.8-2.2,1.5-3.4,2.2c-1.1,0.7-2.2,1.5-3.3,2.4c-1.1,0.8-2,1.8-2.8,3h15.6v5.7H33.2
		c0-1.9,0.3-3.6,0.8-5c0.5-1.4,1.3-2.7,2.2-3.8c0.9-1.1,2-2.1,3.3-3.1c1.3-0.9,2.6-1.9,4-2.9c0.7-0.5,1.5-1,2.3-1.5
		c0.8-0.5,1.6-1.1,2.2-1.7c0.7-0.6,1.2-1.3,1.7-2.1c0.5-0.8,0.7-1.7,0.7-2.7c0-1.6-0.5-2.8-1.4-3.7C48.1,21.4,47,21,45.5,21
		c-1,0-1.8,0.2-2.5,0.7c-0.7,0.5-1.2,1.1-1.6,1.8c-0.4,0.7-0.7,1.6-0.9,2.4c-0.2,0.9-0.3,1.8-0.3,2.7h-6.4
		C33.8,26.7,34.1,24.9,34.6,23.3"/>
</g>
</svg>
