<svg width="100" height="100" viewBox="0 0 100 100" fill="none" xmlns="http://www.w3.org/2000/svg">
  <g clip-path="url(#clip0_1381_107)">
    <rect width="100" height="100" fill="#0066B7" />
    <path
      d="M11.7329 32.8H33.2789V39.1514H25.9014V67H19.1591V39.1514H11.7329V32.8ZM44.9317 32.8H55.6802V61.3814H60.5171V67H44.3454V61.3814H49.0357V38.5163H44.9317V32.8ZM74.7685 32.3114C80.7779 32.3114 85.6148 36.6109 85.6148 43.9883V55.9094C85.6148 63.3357 80.7779 67.4886 74.7685 67.4886C68.7591 67.4886 63.8734 63.3357 63.8734 55.9094V43.9883C63.8734 36.6109 68.7591 32.3114 74.7685 32.3114ZM74.7685 61.0883C77.1136 61.0883 78.9214 59.6714 79.0679 56.6911C79.1168 55.8606 79.1656 54.9811 79.1656 53.9551V45.9914C79.1656 45.0143 79.1168 44.1349 79.0679 43.2066C78.9214 40.0797 77.1136 38.7117 74.7685 38.7117C72.2768 38.7117 70.5668 40.0797 70.4202 43.2066C70.3714 44.1349 70.3714 45.0143 70.3714 45.9914V53.9551C70.3714 54.9811 70.3714 55.8606 70.4202 56.6911C70.5668 59.6714 72.2768 61.0883 74.7685 61.0883Z"
      fill="white" />
  </g>
</svg>