<svg width="100" height="100" viewBox="0 0 100 100" fill="none" xmlns="http://www.w3.org/2000/svg">
  <g clip-path="url(#clip0_1381_113)">
    <rect width="100" height="100" fill="#44A326" />
    <path
      d="M11.7329 32.8H33.2789V39.1514H25.9014V67H19.1591V39.1514H11.7329V32.8ZM44.9317 32.8H55.6802V61.3814H60.5171V67H44.3454V61.3814H49.0357V38.5163H44.9317V32.8ZM81.3154 47.6526C84.0025 49.6069 85.2728 52.6849 85.4194 56.398C85.5659 62.3097 81.6085 67.4886 74.3776 67.4886C67.1468 67.4886 63.2871 62.3586 63.2871 56.4957C63.2871 52.7826 64.7039 49.558 67.3911 47.6037C66.0231 46.0891 65.1925 44.0371 65.1436 41.5454C64.9971 36.6597 68.3194 32.3114 74.3776 32.3114C80.4848 32.3114 83.6116 36.5131 83.6116 41.3989C83.6116 43.9394 82.8299 46.0403 81.3154 47.6526ZM74.3776 45.5029C76.3808 45.5029 77.5534 43.8417 77.5534 41.692C77.5534 39.5911 76.3319 38.0277 74.3776 38.0277C72.2768 38.0277 71.1531 39.64 71.1531 41.7409C71.1531 43.8906 72.3745 45.5029 74.3776 45.5029ZM74.3776 61.4303C77.1136 61.4303 78.6771 59.134 78.6771 56.1537C78.6771 53.0269 77.1136 50.7794 74.3776 50.7794C71.6416 50.7794 70.0782 53.1734 70.0782 56.3003C70.0782 59.2317 71.6416 61.4303 74.3776 61.4303Z"
      fill="white" />
  </g>
</svg>