<svg width="100" height="100" viewBox="0 0 100 100" fill="none" xmlns="http://www.w3.org/2000/svg">
  <g clip-path="url(#clip0_1381_109)">
    <rect width="100" height="100" fill="#D90011" />
    <path
      d="M15.7329 32.8H37.2789V39.1514H29.9014V67H23.1591V39.1514H15.7329V32.8ZM48.9317 32.8H59.6802V61.3814H64.5171V67H48.3454V61.3814H53.0357V38.5163H48.9317V32.8ZM67.0916 56.9843H73.1499C73.2965 59.5249 74.8599 61.186 77.2051 61.186C79.5014 61.186 81.0648 59.134 81.0648 56.0071C80.9182 50.5351 76.5699 49.7534 72.9545 50.5351V49.5091L77.7914 38.614H68.2154V32.8H86.7322V33.826L80.9182 45.796C85.5108 46.7243 87.6116 51.268 87.6116 55.9583C87.6116 62.8471 83.5076 67.4886 77.3028 67.4886C71.2934 67.4886 67.2382 63.2869 67.0916 56.9843Z"
      fill="white" />
  </g>
</svg>