<svg width="100" height="100" viewBox="0 0 100 100" fill="none" xmlns="http://www.w3.org/2000/svg">
  <g clip-path="url(#clip0_1381_114)">
    <rect width="100" height="100" fill="#44A326" />
    <path
      d="M11.7329 32.8H33.2789V39.1514H25.9014V67H19.1591V39.1514H11.7329V32.8ZM44.9317 32.8H55.6802V61.3814H60.5171V67H44.3454V61.3814H49.0357V38.5163H44.9317V32.8ZM66.7174 67L73.5574 54.004C72.8245 54.5414 71.9451 54.6391 71.2122 54.6391C65.7891 54.6391 62.2714 50.3397 62.2714 43.6951C62.2714 36.8551 66.7174 32.3114 73.362 32.3114C80.0065 32.3114 84.4037 36.8551 84.4037 43.6951C84.4037 46.6266 83.622 48.8251 82.4005 51.2191L74.1925 67H66.7174ZM73.362 38.5163C70.8214 38.5163 69.1114 40.5683 69.1114 43.6951C69.1114 47.0174 70.8214 49.1671 73.362 49.1671C76.098 49.1671 77.5637 47.2129 77.5637 43.6951C77.5637 40.5683 75.9025 38.5163 73.362 38.5163Z"
      fill="white" />
  </g>
</svg>