<?xml version="1.0" encoding="UTF-8"?>
<svg xmlns="http://www.w3.org/2000/svg" width="151.4" height="89.7" viewBox="0 0 1514 897">
	<title>Berlin-Brandenburg transit icons - U-Bahn Linie U2</title>
	<path fill="#da421e" d="M0,0h1514v897H0z"/>
	<path fill="#fff" d="M746,534q0 66-18 113t-52.5 76.5t-84.5 43.5t-113 14t-113-14t-84.5-43.5t-52.5-76.5t-18-113v-419h131v379q0 42 7 76.5t23.5 59t42.5 37.5t64 13q37 0 63-13t42-37.5t23-59t7-76.5v-379h133v419zM1339,771h-439v-109q13-12 39-35t56.5-52.5t62.5-64.5t58.5-71.5t43-72.5t16.5-68q0-92-98-92q-42 0-80.5 15.5t-70.5 38.5l-12-108q45-26 95.5-37t100.5-11q100 0 153.5 49t53.5 135q0 54-25.5 105.5t-64.5 99t-84.5 90.5t-85.5 81h281v107z"/>
</svg>