<?xml version="1.0" encoding="UTF-8"?>
<svg xmlns="http://www.w3.org/2000/svg" width="151.4" height="89.7" viewBox="0 0 1514 897">
	<title>Berlin-Brandenburg transit icons - U-Bahn Linie U3</title>
	<path fill="#16683d" d="M0,0h1514v897H0z"/>
	<path fill="#FFF" d="M770,534q0 66-18.5 113t-53 76.5t-84.5 43.5t-113 14t-112.5-14t-84-43.5t-53-76.5t-18.5-113v-419h132v379q0 42 7 76.5t23 59t42 37.5t64 13q75 0 105.5-50.5t30.5-135.5v-379h133v419zM1302,586q0 59-24 97t-61 59.5t-81 30t-84 8.5q-44 0-89.5-5t-81.5-15l7-113q34 14 70 22.5t76 8.5q21 0 45-5t44.5-16.5t34.5-29t14-43.5q0-56-41-79.5t-105-23.5h-65v-104h62q66 0 105.5-21.5t39.5-65.5q0-24-9-40.5t-25-26.5t-36.5-14t-43.5-4q-37 0-74.5 8t-71.5 26l-9-103q40-16 86.5-24.5t98.5-8.5q30 0 67.5 6.5t70.5 24.5t55.5 50.5t22.5 84.5q0 34-10 59.5t-26.5 44t-38.5 32t-47 23.5v2q31 3 54.5 17t39 35t23 47.5t7.5 55.5z"/>
</svg>