<?xml version="1.0" encoding="UTF-8"?>
<svg xmlns="http://www.w3.org/2000/svg" width="151.4" height="89.7" viewBox="0 0 1514 897">
	<title>Berlin-Brandenburg transit icons - U-Bahn Linie U5</title>
	<path fill="#7e5330" d="M0,0h1514v897H0z"/>
	<path fill="#fff" d="M746,534q0 66-18 113t-52.5 76.5t-84.5 43.5t-113 14t-113-14t-84.5-43.5t-52.5-76.5t-18-113v-419h131v379q0 42 7 76.5t23.5 59t42.5 37.5t64 13q37 0 63-13t42-37.5t23-59t7-76.5v-379h133v419zM1339,560q0 46-16 86t-48 70t-80 47.5t-112 17.5q-38 0-79.5-4.5t-73.5-12.5l1-119q24 11 58.5 22.5t79.5 11.5q24 0 48.5-6t44.5-20t32.5-36t12.5-54t-13-54t-34-35.5t-48-19t-55-5.5q-61 0-118 19l7-353h377v98h-252l-2 140q11-3 25-5t33-2q35 0 72.5 9.5t68.5 33.5t51 65.5t20 105.5z"/>
</svg>