<?xml version="1.0" encoding="UTF-8"?>
<svg xmlns="http://www.w3.org/2000/svg" width="151.4" height="89.7" viewBox="0 0 1514 897">
	<title>Berlin-Brandenburg transit icons - U-Bahn Linie U6</title>
	<path fill="#8c6dab" d="M0,0h1514v897H0z"/>
	<path fill="#fff" d="M746,534q0 66-18 113t-52.5 76.5t-84.5 43.5t-113 14t-113-14t-84.5-43.5t-52.5-76.5t-18-113v-419h131v379q0 42 7 76.5t23.5 59t42.5 37.5t64 13q37 0 63-13t42-37.5t23-59t7-76.5v-379h133v419zM1350,548q0 52-14.5 95t-43 74.5t-71.5 49t-100 17.5q-65 0-107.5-23.5t-67-65t-34.5-97.5t-10-121q0-66 13-132t44.5-119t84.5-86.5t133-33.5q37 0 70.5 5t66.5 17l-15 107q-27-13-55-20t-61-7q-43 0-72 18t-47 47.5t-26.5 66t-9.5 72.5l1 3q24-36 55.5-52t73.5-16q94 0 143 53.5t49 147.5zM1216,568q0-24-5-46t-15.5-39.5t-27.5-27.5t-41-10t-41 10t-27.5 26.5t-15.5 36.5t-5 41q0 27 5 50t16 40t28.5 27t42.5 10q23 0 39-10.5t26.5-27t15.5-37.5t5-43z"/>
</svg>