<?xml version="1.0" encoding="UTF-8"?>
<svg xmlns="http://www.w3.org/2000/svg" width="151.4" height="89.7" viewBox="0 0 1514 897">
	<title>Berlin-Brandenburg transit icons - U-Bahn Linie U8</title>
	<path fill="#224f86" d="M0,0h1514v897H0z"/>
	<path fill="#fff" d="M746,534q0 66-18 113t-52.5 76.5t-84.5 43.5t-113 14t-113-14t-84.5-43.5t-52.5-76.5t-18-113v-419h131v379q0 42 7 76.5t23.5 59t42.5 37.5t64 13q37 0 63-13t42-37.5t23-59t7-76.5v-379h133v419zM1352,593q0 47-17 82.5t-47 59.5t-71 36.5t-89 12.5q-51 0-93.5-11t-74-33.5t-49-56.5t-17.5-80q0-113 121-171v-1q-49-23-79-62.5t-30-91.5q0-34 15-65t43.5-54.5t69.5-37.5t93-14q96 0 153 42.5t57 114.5q0 54-32 96.5t-80 59.5q66 31 96.5 74t30.5 100zM1208,285q0-37-21.5-60t-63.5-23q-16 0-32 5t-28.5 14.5t-20.5 24.5t-8 35q0 21 9.5 36.5t24 27t32.5 20t35 14.5q30-14 51.5-39t21.5-55zM1220,599q0-25-9.5-43.5t-25-32t-35-23.5t-39.5-17q-37 19-60.5 43.5t-23.5 66.5q0 45 28.5 69t72.5 24q38 0 65-23t27-64z" />
</svg>