<?xml version="1.0" encoding="UTF-8"?>
<svg xmlns="http://www.w3.org/2000/svg" width="151.4" height="89.7" viewBox="0 0 1514 897">
	<title>Berlin-Brandenburg transit icons - U-Bahn Linie U9</title>
	<path fill="#f3791d" d="M0,0h1514v897H0z"/>
	<path fill="#fff" d="M747,534q0 66-18 113t-52.5 76.5t-84.5 43.5t-113 14t-113-14t-84.5-43.5t-52.5-76.5t-18-113v-419h131v379q0 42 7 76.5t23.5 59t42.5 37.5t64 13q37 0 63-13t42-37.5t23-59t7-76.5v-379h133v419zM1346,408q0 67-12.5 134t-43 121t-83 87.5t-131.5 33.5q-37 0-70.5-6t-67.5-20l17-105q24 11 52.5 19t62.5 8q43 0 72-18.5t47-47.5t26.5-65t9.5-72l-2-1q-24 32-55 47.5t-73 15.5q-93 0-142-54.5t-49-145.5q0-53 13-96.5t40-74t68.5-47.5t97.5-17q68 0 111.5 26t68 68.5t34 97t9.5 112.5zM1215,317q0-23-5-44t-16.5-37.5t-29-26t-41.5-9.5q-23 0-39.5 10.5t-27.5 27t-16.5 38t-5.5 43.5q0 24 5.5 45.5t16.5 38.5t29 27t42 10q23 0 40-10t27.5-27t15.5-39.5t5-46.5z"/>
</svg>